<mxfile host="app.diagrams.net" modified="2023-06-12T15:17:13.385Z" agent="Mozilla/5.0 (Macintosh; Intel Mac OS X 10_15_7) AppleWebKit/537.36 (KHTML, like Gecko) Chrome/114.0.0.0 Safari/537.36" etag="plcjzj69Z_h-ncQ_44X3" version="21.3.8" type="github" pages="4">
  <diagram name="หน้า-1" id="e1eu3_AcNsCTSdLqQmM4">
    <mxGraphModel dx="1146" dy="1011" grid="1" gridSize="10" guides="1" tooltips="1" connect="1" arrows="1" fold="1" page="1" pageScale="1" pageWidth="827" pageHeight="1169" math="0" shadow="0">
      <root>
        <mxCell id="0" />
        <mxCell id="1" parent="0" />
        <mxCell id="ZyS7bsypy91t9NgrDlpx-1" value="เริ่ม" style="ellipse;whiteSpace=wrap;html=1;" vertex="1" parent="1">
          <mxGeometry x="70" y="40" width="80" height="40" as="geometry" />
        </mxCell>
        <mxCell id="ZyS7bsypy91t9NgrDlpx-2" value="ตรวจสอบสิทธิ์การใช้งาน" style="rounded=1;whiteSpace=wrap;html=1;" vertex="1" parent="1">
          <mxGeometry x="40" y="120" width="140" height="30" as="geometry" />
        </mxCell>
        <mxCell id="ZyS7bsypy91t9NgrDlpx-3" value="" style="edgeStyle=orthogonalEdgeStyle;rounded=0;orthogonalLoop=1;jettySize=auto;html=1;" edge="1" parent="1" source="ZyS7bsypy91t9NgrDlpx-1" target="ZyS7bsypy91t9NgrDlpx-2">
          <mxGeometry relative="1" as="geometry" />
        </mxCell>
        <mxCell id="ZyS7bsypy91t9NgrDlpx-4" value="มี ?" style="rhombus;whiteSpace=wrap;html=1;" vertex="1" parent="1">
          <mxGeometry x="80" y="180" width="60" height="60" as="geometry" />
        </mxCell>
        <mxCell id="ZyS7bsypy91t9NgrDlpx-5" value="" style="edgeStyle=orthogonalEdgeStyle;rounded=0;orthogonalLoop=1;jettySize=auto;html=1;" edge="1" parent="1" source="ZyS7bsypy91t9NgrDlpx-2" target="ZyS7bsypy91t9NgrDlpx-4">
          <mxGeometry relative="1" as="geometry" />
        </mxCell>
        <mxCell id="ZyS7bsypy91t9NgrDlpx-6" style="edgeStyle=orthogonalEdgeStyle;rounded=0;orthogonalLoop=1;jettySize=auto;html=1;entryX=-0.022;entryY=0.676;entryDx=0;entryDy=0;entryPerimeter=0;" edge="1" parent="1" source="ZyS7bsypy91t9NgrDlpx-4" target="ZyS7bsypy91t9NgrDlpx-20">
          <mxGeometry relative="1" as="geometry">
            <Array as="points">
              <mxPoint x="110" y="644" />
            </Array>
            <mxPoint x="265" y="750" as="targetPoint" />
          </mxGeometry>
        </mxCell>
        <mxCell id="ZyS7bsypy91t9NgrDlpx-7" value="ไม่" style="edgeLabel;html=1;align=center;verticalAlign=middle;resizable=0;points=[];" vertex="1" connectable="0" parent="ZyS7bsypy91t9NgrDlpx-6">
          <mxGeometry x="-0.8925" y="1" relative="1" as="geometry">
            <mxPoint as="offset" />
          </mxGeometry>
        </mxCell>
        <mxCell id="ZyS7bsypy91t9NgrDlpx-8" value="ตรวจสอบ Account &lt;br&gt;สถานะการใช้งาน" style="rounded=1;whiteSpace=wrap;html=1;" vertex="1" parent="1">
          <mxGeometry x="256.35" y="189" width="170" height="40" as="geometry" />
        </mxCell>
        <mxCell id="ZyS7bsypy91t9NgrDlpx-9" value="" style="edgeStyle=orthogonalEdgeStyle;rounded=0;orthogonalLoop=1;jettySize=auto;html=1;" edge="1" parent="1" source="ZyS7bsypy91t9NgrDlpx-4" target="ZyS7bsypy91t9NgrDlpx-8">
          <mxGeometry relative="1" as="geometry">
            <Array as="points">
              <mxPoint x="220" y="210" />
              <mxPoint x="220" y="210" />
            </Array>
          </mxGeometry>
        </mxCell>
        <mxCell id="ZyS7bsypy91t9NgrDlpx-10" value="ใช่" style="edgeLabel;html=1;align=center;verticalAlign=middle;resizable=0;points=[];" vertex="1" connectable="0" parent="ZyS7bsypy91t9NgrDlpx-9">
          <mxGeometry x="-0.7797" y="-1" relative="1" as="geometry">
            <mxPoint as="offset" />
          </mxGeometry>
        </mxCell>
        <mxCell id="ZyS7bsypy91t9NgrDlpx-11" value="มีใน&lt;br&gt;ระบบ &lt;br&gt;?" style="rhombus;whiteSpace=wrap;html=1;" vertex="1" parent="1">
          <mxGeometry x="303.85" y="268" width="75" height="70" as="geometry" />
        </mxCell>
        <mxCell id="ZyS7bsypy91t9NgrDlpx-12" value="" style="edgeStyle=orthogonalEdgeStyle;rounded=0;orthogonalLoop=1;jettySize=auto;html=1;" edge="1" parent="1" source="ZyS7bsypy91t9NgrDlpx-8" target="ZyS7bsypy91t9NgrDlpx-11">
          <mxGeometry relative="1" as="geometry" />
        </mxCell>
        <mxCell id="ZyS7bsypy91t9NgrDlpx-13" value="status&lt;br style=&quot;border-color: var(--border-color);&quot;&gt;= 1 ?" style="rhombus;whiteSpace=wrap;html=1;" vertex="1" parent="1">
          <mxGeometry x="311.35" y="388" width="60" height="60" as="geometry" />
        </mxCell>
        <mxCell id="ZyS7bsypy91t9NgrDlpx-14" value="" style="edgeStyle=orthogonalEdgeStyle;rounded=0;orthogonalLoop=1;jettySize=auto;html=1;" edge="1" parent="1" source="ZyS7bsypy91t9NgrDlpx-11" target="ZyS7bsypy91t9NgrDlpx-13">
          <mxGeometry relative="1" as="geometry" />
        </mxCell>
        <mxCell id="ZyS7bsypy91t9NgrDlpx-15" value="ใช่" style="edgeLabel;html=1;align=center;verticalAlign=middle;resizable=0;points=[];" vertex="1" connectable="0" parent="ZyS7bsypy91t9NgrDlpx-14">
          <mxGeometry x="-0.3254" y="2" relative="1" as="geometry">
            <mxPoint x="-2" as="offset" />
          </mxGeometry>
        </mxCell>
        <mxCell id="ZyS7bsypy91t9NgrDlpx-16" value="Locked&lt;br style=&quot;border-color: var(--border-color);&quot;&gt;= 1 ?&amp;nbsp;" style="rhombus;whiteSpace=wrap;html=1;" vertex="1" parent="1">
          <mxGeometry x="311.35" y="518" width="60" height="60" as="geometry" />
        </mxCell>
        <mxCell id="ZyS7bsypy91t9NgrDlpx-17" value="" style="edgeStyle=orthogonalEdgeStyle;rounded=0;orthogonalLoop=1;jettySize=auto;html=1;" edge="1" parent="1" source="ZyS7bsypy91t9NgrDlpx-13" target="ZyS7bsypy91t9NgrDlpx-16">
          <mxGeometry relative="1" as="geometry" />
        </mxCell>
        <mxCell id="ZyS7bsypy91t9NgrDlpx-18" value="ไม่" style="edgeLabel;html=1;align=center;verticalAlign=middle;resizable=0;points=[];" vertex="1" connectable="0" parent="ZyS7bsypy91t9NgrDlpx-17">
          <mxGeometry x="-0.3745" relative="1" as="geometry">
            <mxPoint as="offset" />
          </mxGeometry>
        </mxCell>
        <mxCell id="ZyS7bsypy91t9NgrDlpx-19" style="edgeStyle=orthogonalEdgeStyle;rounded=0;orthogonalLoop=1;jettySize=auto;html=1;entryX=0;entryY=0.5;entryDx=0;entryDy=0;" edge="1" parent="1" source="ZyS7bsypy91t9NgrDlpx-20" target="ZyS7bsypy91t9NgrDlpx-64">
          <mxGeometry relative="1" as="geometry">
            <Array as="points">
              <mxPoint x="239" y="1120" />
            </Array>
          </mxGeometry>
        </mxCell>
        <mxCell id="ZyS7bsypy91t9NgrDlpx-20" value="" style="ellipse;whiteSpace=wrap;html=1;aspect=fixed;" vertex="1" parent="1">
          <mxGeometry x="213.75" y="610" width="50" height="50" as="geometry" />
        </mxCell>
        <mxCell id="ZyS7bsypy91t9NgrDlpx-21" style="edgeStyle=orthogonalEdgeStyle;rounded=0;orthogonalLoop=1;jettySize=auto;html=1;" edge="1" parent="1" source="ZyS7bsypy91t9NgrDlpx-22" target="ZyS7bsypy91t9NgrDlpx-20">
          <mxGeometry relative="1" as="geometry">
            <Array as="points">
              <mxPoint x="140" y="303" />
              <mxPoint x="140" y="630" />
            </Array>
          </mxGeometry>
        </mxCell>
        <mxCell id="ZyS7bsypy91t9NgrDlpx-22" value="rerturn Error Code&amp;nbsp;001&lt;span style=&quot;font-size: medium; text-align: start;&quot;&gt;&lt;/span&gt;" style="rounded=1;whiteSpace=wrap;html=1;" vertex="1" parent="1">
          <mxGeometry x="150" y="283" width="77.5" height="40" as="geometry" />
        </mxCell>
        <mxCell id="ZyS7bsypy91t9NgrDlpx-23" style="edgeStyle=orthogonalEdgeStyle;rounded=0;orthogonalLoop=1;jettySize=auto;html=1;" edge="1" parent="1" source="ZyS7bsypy91t9NgrDlpx-11" target="ZyS7bsypy91t9NgrDlpx-22">
          <mxGeometry relative="1" as="geometry">
            <mxPoint x="240.10000000000002" y="408" as="targetPoint" />
          </mxGeometry>
        </mxCell>
        <mxCell id="ZyS7bsypy91t9NgrDlpx-24" value="ไม่" style="edgeLabel;html=1;align=center;verticalAlign=middle;resizable=0;points=[];" vertex="1" connectable="0" parent="ZyS7bsypy91t9NgrDlpx-23">
          <mxGeometry x="-0.6573" y="2" relative="1" as="geometry">
            <mxPoint as="offset" />
          </mxGeometry>
        </mxCell>
        <mxCell id="ZyS7bsypy91t9NgrDlpx-25" style="edgeStyle=orthogonalEdgeStyle;rounded=0;orthogonalLoop=1;jettySize=auto;html=1;entryX=0.5;entryY=0;entryDx=0;entryDy=0;" edge="1" parent="1" source="ZyS7bsypy91t9NgrDlpx-26" target="ZyS7bsypy91t9NgrDlpx-20">
          <mxGeometry relative="1" as="geometry" />
        </mxCell>
        <mxCell id="ZyS7bsypy91t9NgrDlpx-26" value="rerturn Error Code&amp;nbsp;011&lt;span style=&quot;font-size: medium; text-align: start;&quot;&gt;&lt;/span&gt;" style="rounded=1;whiteSpace=wrap;html=1;" vertex="1" parent="1">
          <mxGeometry x="200" y="528" width="77.5" height="40" as="geometry" />
        </mxCell>
        <mxCell id="ZyS7bsypy91t9NgrDlpx-27" value="" style="edgeStyle=orthogonalEdgeStyle;rounded=0;orthogonalLoop=1;jettySize=auto;html=1;" edge="1" parent="1" source="ZyS7bsypy91t9NgrDlpx-16" target="ZyS7bsypy91t9NgrDlpx-26">
          <mxGeometry relative="1" as="geometry" />
        </mxCell>
        <mxCell id="ZyS7bsypy91t9NgrDlpx-28" value="ใช่" style="edgeLabel;html=1;align=center;verticalAlign=middle;resizable=0;points=[];" vertex="1" connectable="0" parent="ZyS7bsypy91t9NgrDlpx-27">
          <mxGeometry x="-0.4608" y="1" relative="1" as="geometry">
            <mxPoint as="offset" />
          </mxGeometry>
        </mxCell>
        <mxCell id="ZyS7bsypy91t9NgrDlpx-29" style="edgeStyle=orthogonalEdgeStyle;rounded=0;orthogonalLoop=1;jettySize=auto;html=1;" edge="1" parent="1" source="ZyS7bsypy91t9NgrDlpx-30" target="ZyS7bsypy91t9NgrDlpx-20">
          <mxGeometry relative="1" as="geometry">
            <mxPoint x="240" y="610" as="targetPoint" />
            <Array as="points">
              <mxPoint x="180" y="418" />
              <mxPoint x="180" y="620" />
            </Array>
          </mxGeometry>
        </mxCell>
        <mxCell id="ZyS7bsypy91t9NgrDlpx-30" value="rerturn Error Code&amp;nbsp;004&lt;span style=&quot;font-size: medium; text-align: start;&quot;&gt;&lt;/span&gt;" style="rounded=1;whiteSpace=wrap;html=1;" vertex="1" parent="1">
          <mxGeometry x="200" y="398" width="77.5" height="40" as="geometry" />
        </mxCell>
        <mxCell id="ZyS7bsypy91t9NgrDlpx-31" value="" style="edgeStyle=orthogonalEdgeStyle;rounded=0;orthogonalLoop=1;jettySize=auto;html=1;" edge="1" parent="1" source="ZyS7bsypy91t9NgrDlpx-13" target="ZyS7bsypy91t9NgrDlpx-30">
          <mxGeometry relative="1" as="geometry" />
        </mxCell>
        <mxCell id="ZyS7bsypy91t9NgrDlpx-32" value="ใช่" style="edgeLabel;html=1;align=center;verticalAlign=middle;resizable=0;points=[];" vertex="1" connectable="0" parent="ZyS7bsypy91t9NgrDlpx-31">
          <mxGeometry x="-0.4608" y="2" relative="1" as="geometry">
            <mxPoint as="offset" />
          </mxGeometry>
        </mxCell>
        <mxCell id="ZyS7bsypy91t9NgrDlpx-33" value="" style="edgeStyle=orthogonalEdgeStyle;rounded=0;orthogonalLoop=1;jettySize=auto;html=1;entryX=0.1;entryY=0.5;entryDx=0;entryDy=0;entryPerimeter=0;" edge="1" parent="1" source="ZyS7bsypy91t9NgrDlpx-16" target="ZyS7bsypy91t9NgrDlpx-38">
          <mxGeometry relative="1" as="geometry">
            <mxPoint x="414" y="548" as="targetPoint" />
          </mxGeometry>
        </mxCell>
        <mxCell id="ZyS7bsypy91t9NgrDlpx-34" value="" style="edgeStyle=orthogonalEdgeStyle;rounded=0;orthogonalLoop=1;jettySize=auto;html=1;" edge="1" parent="1" source="ZyS7bsypy91t9NgrDlpx-38">
          <mxGeometry relative="1" as="geometry">
            <mxPoint x="530" y="548" as="targetPoint" />
          </mxGeometry>
        </mxCell>
        <mxCell id="ZyS7bsypy91t9NgrDlpx-35" value="ไม่" style="edgeLabel;html=1;align=center;verticalAlign=middle;resizable=0;points=[];" vertex="1" connectable="0" parent="ZyS7bsypy91t9NgrDlpx-34">
          <mxGeometry x="-0.3115" y="3" relative="1" as="geometry">
            <mxPoint as="offset" />
          </mxGeometry>
        </mxCell>
        <mxCell id="ZyS7bsypy91t9NgrDlpx-36" style="edgeStyle=orthogonalEdgeStyle;rounded=0;orthogonalLoop=1;jettySize=auto;html=1;entryX=0.5;entryY=0;entryDx=0;entryDy=0;" edge="1" parent="1" source="ZyS7bsypy91t9NgrDlpx-38" target="ZyS7bsypy91t9NgrDlpx-61">
          <mxGeometry relative="1" as="geometry">
            <mxPoint x="447" y="940" as="targetPoint" />
          </mxGeometry>
        </mxCell>
        <mxCell id="ZyS7bsypy91t9NgrDlpx-37" value="ใช่" style="edgeLabel;html=1;align=center;verticalAlign=middle;resizable=0;points=[];" vertex="1" connectable="0" parent="ZyS7bsypy91t9NgrDlpx-36">
          <mxGeometry x="-0.3215" y="2" relative="1" as="geometry">
            <mxPoint as="offset" />
          </mxGeometry>
        </mxCell>
        <mxCell id="ZyS7bsypy91t9NgrDlpx-38" value="Super&lt;br&gt;Admin ?" style="rhombus;whiteSpace=wrap;html=1;" vertex="1" parent="1">
          <mxGeometry x="414" y="512" width="66" height="72" as="geometry" />
        </mxCell>
        <mxCell id="ZyS7bsypy91t9NgrDlpx-39" value="" style="edgeStyle=orthogonalEdgeStyle;rounded=0;orthogonalLoop=1;jettySize=auto;html=1;" edge="1" parent="1" source="ZyS7bsypy91t9NgrDlpx-40" target="ZyS7bsypy91t9NgrDlpx-45">
          <mxGeometry relative="1" as="geometry" />
        </mxCell>
        <mxCell id="ZyS7bsypy91t9NgrDlpx-40" value="ตรวจสอบสิทธิ์การใช้งาน Company นี้ไหม&lt;span style=&quot;font-size: medium; text-align: start;&quot;&gt;&lt;/span&gt;" style="rounded=1;whiteSpace=wrap;html=1;" vertex="1" parent="1">
          <mxGeometry x="530" y="528" width="110" height="42" as="geometry" />
        </mxCell>
        <mxCell id="ZyS7bsypy91t9NgrDlpx-41" value="" style="edgeStyle=orthogonalEdgeStyle;rounded=0;orthogonalLoop=1;jettySize=auto;html=1;" edge="1" parent="1" source="ZyS7bsypy91t9NgrDlpx-45" target="ZyS7bsypy91t9NgrDlpx-49">
          <mxGeometry relative="1" as="geometry" />
        </mxCell>
        <mxCell id="ZyS7bsypy91t9NgrDlpx-42" value="ใช่" style="edgeLabel;html=1;align=center;verticalAlign=middle;resizable=0;points=[];" vertex="1" connectable="0" parent="ZyS7bsypy91t9NgrDlpx-41">
          <mxGeometry x="-0.2859" relative="1" as="geometry">
            <mxPoint as="offset" />
          </mxGeometry>
        </mxCell>
        <mxCell id="ZyS7bsypy91t9NgrDlpx-43" style="edgeStyle=orthogonalEdgeStyle;rounded=0;orthogonalLoop=1;jettySize=auto;html=1;" edge="1" parent="1" source="ZyS7bsypy91t9NgrDlpx-45" target="ZyS7bsypy91t9NgrDlpx-51">
          <mxGeometry relative="1" as="geometry">
            <mxPoint x="680" y="645.9999999999998" as="targetPoint" />
          </mxGeometry>
        </mxCell>
        <mxCell id="ZyS7bsypy91t9NgrDlpx-44" value="ไม่" style="edgeLabel;html=1;align=center;verticalAlign=middle;resizable=0;points=[];" vertex="1" connectable="0" parent="ZyS7bsypy91t9NgrDlpx-43">
          <mxGeometry x="-0.0865" y="2" relative="1" as="geometry">
            <mxPoint as="offset" />
          </mxGeometry>
        </mxCell>
        <mxCell id="ZyS7bsypy91t9NgrDlpx-45" value="มี ?" style="rhombus;whiteSpace=wrap;html=1;" vertex="1" parent="1">
          <mxGeometry x="552" y="610" width="66" height="72" as="geometry" />
        </mxCell>
        <mxCell id="ZyS7bsypy91t9NgrDlpx-46" value="ใช่" style="edgeStyle=orthogonalEdgeStyle;rounded=0;orthogonalLoop=1;jettySize=auto;html=1;" edge="1" parent="1" source="ZyS7bsypy91t9NgrDlpx-49" target="ZyS7bsypy91t9NgrDlpx-55">
          <mxGeometry relative="1" as="geometry" />
        </mxCell>
        <mxCell id="ZyS7bsypy91t9NgrDlpx-47" value="" style="edgeStyle=orthogonalEdgeStyle;rounded=0;orthogonalLoop=1;jettySize=auto;html=1;" edge="1" parent="1" source="ZyS7bsypy91t9NgrDlpx-49" target="ZyS7bsypy91t9NgrDlpx-57">
          <mxGeometry relative="1" as="geometry" />
        </mxCell>
        <mxCell id="ZyS7bsypy91t9NgrDlpx-48" value="ไม่" style="edgeLabel;html=1;align=center;verticalAlign=middle;resizable=0;points=[];" vertex="1" connectable="0" parent="ZyS7bsypy91t9NgrDlpx-47">
          <mxGeometry x="-0.1127" relative="1" as="geometry">
            <mxPoint as="offset" />
          </mxGeometry>
        </mxCell>
        <mxCell id="ZyS7bsypy91t9NgrDlpx-49" value="Company &lt;br&gt;มีในระบบ&lt;br&gt;ไหม ?" style="rhombus;whiteSpace=wrap;html=1;" vertex="1" parent="1">
          <mxGeometry x="540" y="740" width="90" height="80" as="geometry" />
        </mxCell>
        <mxCell id="ZyS7bsypy91t9NgrDlpx-50" style="edgeStyle=orthogonalEdgeStyle;rounded=0;orthogonalLoop=1;jettySize=auto;html=1;entryX=1;entryY=0.5;entryDx=0;entryDy=0;" edge="1" parent="1" source="ZyS7bsypy91t9NgrDlpx-51" target="ZyS7bsypy91t9NgrDlpx-63">
          <mxGeometry relative="1" as="geometry">
            <mxPoint x="780" y="800" as="targetPoint" />
            <Array as="points">
              <mxPoint x="778" y="646" />
              <mxPoint x="778" y="1015" />
            </Array>
          </mxGeometry>
        </mxCell>
        <mxCell id="ZyS7bsypy91t9NgrDlpx-51" value="rerturn Error Code&amp;nbsp;002&lt;span style=&quot;font-size: medium; text-align: start;&quot;&gt;&lt;/span&gt;" style="rounded=1;whiteSpace=wrap;html=1;" vertex="1" parent="1">
          <mxGeometry x="680" y="626" width="77.5" height="40" as="geometry" />
        </mxCell>
        <mxCell id="ZyS7bsypy91t9NgrDlpx-52" value="" style="edgeStyle=orthogonalEdgeStyle;rounded=0;orthogonalLoop=1;jettySize=auto;html=1;" edge="1" parent="1" source="ZyS7bsypy91t9NgrDlpx-55" target="ZyS7bsypy91t9NgrDlpx-59">
          <mxGeometry relative="1" as="geometry" />
        </mxCell>
        <mxCell id="ZyS7bsypy91t9NgrDlpx-53" value="ไม่" style="edgeLabel;html=1;align=center;verticalAlign=middle;resizable=0;points=[];" vertex="1" connectable="0" parent="ZyS7bsypy91t9NgrDlpx-52">
          <mxGeometry x="-0.2152" y="2" relative="1" as="geometry">
            <mxPoint as="offset" />
          </mxGeometry>
        </mxCell>
        <mxCell id="ZyS7bsypy91t9NgrDlpx-54" style="edgeStyle=orthogonalEdgeStyle;rounded=0;orthogonalLoop=1;jettySize=auto;html=1;entryX=1;entryY=0.5;entryDx=0;entryDy=0;" edge="1" parent="1" source="ZyS7bsypy91t9NgrDlpx-55" target="ZyS7bsypy91t9NgrDlpx-61">
          <mxGeometry relative="1" as="geometry">
            <Array as="points">
              <mxPoint x="585" y="980" />
            </Array>
          </mxGeometry>
        </mxCell>
        <mxCell id="ZyS7bsypy91t9NgrDlpx-55" value="Company &lt;br&gt;Active ?" style="rhombus;whiteSpace=wrap;html=1;" vertex="1" parent="1">
          <mxGeometry x="540" y="860" width="90" height="80" as="geometry" />
        </mxCell>
        <mxCell id="ZyS7bsypy91t9NgrDlpx-56" style="edgeStyle=orthogonalEdgeStyle;rounded=0;orthogonalLoop=1;jettySize=auto;html=1;entryX=1;entryY=0;entryDx=0;entryDy=0;" edge="1" parent="1" source="ZyS7bsypy91t9NgrDlpx-57" target="ZyS7bsypy91t9NgrDlpx-63">
          <mxGeometry relative="1" as="geometry">
            <Array as="points">
              <mxPoint x="770" y="780" />
              <mxPoint x="770" y="997" />
            </Array>
          </mxGeometry>
        </mxCell>
        <mxCell id="ZyS7bsypy91t9NgrDlpx-57" value="rerturn Error Code&amp;nbsp;007&lt;span style=&quot;font-size: medium; text-align: start;&quot;&gt;&lt;/span&gt;" style="rounded=1;whiteSpace=wrap;html=1;" vertex="1" parent="1">
          <mxGeometry x="680" y="760" width="77.5" height="40" as="geometry" />
        </mxCell>
        <mxCell id="ZyS7bsypy91t9NgrDlpx-58" style="edgeStyle=orthogonalEdgeStyle;rounded=0;orthogonalLoop=1;jettySize=auto;html=1;" edge="1" parent="1" source="ZyS7bsypy91t9NgrDlpx-59" target="ZyS7bsypy91t9NgrDlpx-63">
          <mxGeometry relative="1" as="geometry" />
        </mxCell>
        <mxCell id="ZyS7bsypy91t9NgrDlpx-59" value="rerturn Error Code&amp;nbsp;051&lt;span style=&quot;font-size: medium; text-align: start;&quot;&gt;&lt;/span&gt;" style="rounded=1;whiteSpace=wrap;html=1;" vertex="1" parent="1">
          <mxGeometry x="680" y="880" width="77.5" height="40" as="geometry" />
        </mxCell>
        <mxCell id="ZyS7bsypy91t9NgrDlpx-60" value="" style="edgeStyle=orthogonalEdgeStyle;rounded=0;orthogonalLoop=1;jettySize=auto;html=1;" edge="1" parent="1" source="ZyS7bsypy91t9NgrDlpx-61" target="ZyS7bsypy91t9NgrDlpx-66">
          <mxGeometry relative="1" as="geometry" />
        </mxCell>
        <mxCell id="ZyS7bsypy91t9NgrDlpx-61" value="ดึงข้อมูลผู้ตรวจสอบบัญชี" style="rounded=1;whiteSpace=wrap;html=1;" vertex="1" parent="1">
          <mxGeometry x="387" y="950" width="120" height="40" as="geometry" />
        </mxCell>
        <mxCell id="ZyS7bsypy91t9NgrDlpx-62" style="edgeStyle=orthogonalEdgeStyle;rounded=0;orthogonalLoop=1;jettySize=auto;html=1;entryX=1;entryY=1;entryDx=0;entryDy=0;" edge="1" parent="1" source="ZyS7bsypy91t9NgrDlpx-63" target="ZyS7bsypy91t9NgrDlpx-64">
          <mxGeometry relative="1" as="geometry">
            <Array as="points">
              <mxPoint x="719" y="1140" />
              <mxPoint x="450" y="1140" />
            </Array>
          </mxGeometry>
        </mxCell>
        <mxCell id="ZyS7bsypy91t9NgrDlpx-63" value="" style="ellipse;whiteSpace=wrap;html=1;aspect=fixed;" vertex="1" parent="1">
          <mxGeometry x="693.75" y="990" width="50" height="50" as="geometry" />
        </mxCell>
        <mxCell id="ZyS7bsypy91t9NgrDlpx-64" value="สิ้นสุด" style="ellipse;whiteSpace=wrap;html=1;" vertex="1" parent="1">
          <mxGeometry x="362" y="1090" width="103" height="60" as="geometry" />
        </mxCell>
        <mxCell id="ZyS7bsypy91t9NgrDlpx-65" style="edgeStyle=orthogonalEdgeStyle;rounded=0;orthogonalLoop=1;jettySize=auto;html=1;entryX=1;entryY=0.5;entryDx=0;entryDy=0;" edge="1" parent="1" source="ZyS7bsypy91t9NgrDlpx-66" target="ZyS7bsypy91t9NgrDlpx-64">
          <mxGeometry relative="1" as="geometry" />
        </mxCell>
        <mxCell id="ZyS7bsypy91t9NgrDlpx-66" value="ส่งกลับข้อมูลผู้ตรวจสอบบัญชี" style="rounded=1;whiteSpace=wrap;html=1;" vertex="1" parent="1">
          <mxGeometry x="387" y="1020" width="120" height="40" as="geometry" />
        </mxCell>
      </root>
    </mxGraphModel>
  </diagram>
  <diagram id="ZRlWZLBwG4pf9HVlSord" name="หน้า-2">
    <mxGraphModel dx="1146" dy="1011" grid="1" gridSize="10" guides="1" tooltips="1" connect="1" arrows="1" fold="1" page="1" pageScale="1" pageWidth="827" pageHeight="1169" math="0" shadow="0">
      <root>
        <mxCell id="0" />
        <mxCell id="1" parent="0" />
        <mxCell id="mXeoPQr-HMrJ5cG2zlMf-1" value="เริ่ม" style="ellipse;whiteSpace=wrap;html=1;" vertex="1" parent="1">
          <mxGeometry x="75" y="20" width="80" height="40" as="geometry" />
        </mxCell>
        <mxCell id="mXeoPQr-HMrJ5cG2zlMf-2" value="ตรวจสอบสิทธิ์การใช้งาน" style="rounded=1;whiteSpace=wrap;html=1;" vertex="1" parent="1">
          <mxGeometry x="45" y="100" width="140" height="30" as="geometry" />
        </mxCell>
        <mxCell id="mXeoPQr-HMrJ5cG2zlMf-3" value="" style="edgeStyle=orthogonalEdgeStyle;rounded=0;orthogonalLoop=1;jettySize=auto;html=1;" edge="1" parent="1" source="mXeoPQr-HMrJ5cG2zlMf-1" target="mXeoPQr-HMrJ5cG2zlMf-2">
          <mxGeometry relative="1" as="geometry" />
        </mxCell>
        <mxCell id="mXeoPQr-HMrJ5cG2zlMf-4" value="มี ?" style="rhombus;whiteSpace=wrap;html=1;" vertex="1" parent="1">
          <mxGeometry x="85" y="160" width="60" height="60" as="geometry" />
        </mxCell>
        <mxCell id="mXeoPQr-HMrJ5cG2zlMf-5" value="" style="edgeStyle=orthogonalEdgeStyle;rounded=0;orthogonalLoop=1;jettySize=auto;html=1;" edge="1" parent="1" source="mXeoPQr-HMrJ5cG2zlMf-2" target="mXeoPQr-HMrJ5cG2zlMf-4">
          <mxGeometry relative="1" as="geometry" />
        </mxCell>
        <mxCell id="mXeoPQr-HMrJ5cG2zlMf-6" style="edgeStyle=orthogonalEdgeStyle;rounded=0;orthogonalLoop=1;jettySize=auto;html=1;entryX=-0.022;entryY=0.676;entryDx=0;entryDy=0;entryPerimeter=0;" edge="1" parent="1" source="mXeoPQr-HMrJ5cG2zlMf-4" target="mXeoPQr-HMrJ5cG2zlMf-19">
          <mxGeometry relative="1" as="geometry">
            <Array as="points">
              <mxPoint x="115" y="624" />
            </Array>
            <mxPoint x="270" y="730" as="targetPoint" />
          </mxGeometry>
        </mxCell>
        <mxCell id="mXeoPQr-HMrJ5cG2zlMf-7" value="ไม่" style="edgeLabel;html=1;align=center;verticalAlign=middle;resizable=0;points=[];" vertex="1" connectable="0" parent="mXeoPQr-HMrJ5cG2zlMf-6">
          <mxGeometry x="-0.8925" y="1" relative="1" as="geometry">
            <mxPoint as="offset" />
          </mxGeometry>
        </mxCell>
        <mxCell id="mXeoPQr-HMrJ5cG2zlMf-8" value="ตรวจสอบ Account &lt;br&gt;สถานะการใช้งาน" style="rounded=1;whiteSpace=wrap;html=1;" vertex="1" parent="1">
          <mxGeometry x="261.35" y="169" width="170" height="40" as="geometry" />
        </mxCell>
        <mxCell id="mXeoPQr-HMrJ5cG2zlMf-9" value="" style="edgeStyle=orthogonalEdgeStyle;rounded=0;orthogonalLoop=1;jettySize=auto;html=1;" edge="1" parent="1" source="mXeoPQr-HMrJ5cG2zlMf-4" target="mXeoPQr-HMrJ5cG2zlMf-8">
          <mxGeometry relative="1" as="geometry">
            <Array as="points">
              <mxPoint x="225" y="190" />
              <mxPoint x="225" y="190" />
            </Array>
          </mxGeometry>
        </mxCell>
        <mxCell id="mXeoPQr-HMrJ5cG2zlMf-10" value="ใช่" style="edgeLabel;html=1;align=center;verticalAlign=middle;resizable=0;points=[];" vertex="1" connectable="0" parent="mXeoPQr-HMrJ5cG2zlMf-9">
          <mxGeometry x="-0.7797" y="-1" relative="1" as="geometry">
            <mxPoint as="offset" />
          </mxGeometry>
        </mxCell>
        <mxCell id="mXeoPQr-HMrJ5cG2zlMf-11" value="มีใน&lt;br&gt;ระบบ &lt;br&gt;?" style="rhombus;whiteSpace=wrap;html=1;" vertex="1" parent="1">
          <mxGeometry x="308.85" y="248" width="75" height="70" as="geometry" />
        </mxCell>
        <mxCell id="mXeoPQr-HMrJ5cG2zlMf-12" value="" style="edgeStyle=orthogonalEdgeStyle;rounded=0;orthogonalLoop=1;jettySize=auto;html=1;" edge="1" parent="1" source="mXeoPQr-HMrJ5cG2zlMf-8" target="mXeoPQr-HMrJ5cG2zlMf-11">
          <mxGeometry relative="1" as="geometry" />
        </mxCell>
        <mxCell id="mXeoPQr-HMrJ5cG2zlMf-13" value="status&lt;br style=&quot;border-color: var(--border-color);&quot;&gt;= 1 ?" style="rhombus;whiteSpace=wrap;html=1;" vertex="1" parent="1">
          <mxGeometry x="316.35" y="368" width="60" height="60" as="geometry" />
        </mxCell>
        <mxCell id="mXeoPQr-HMrJ5cG2zlMf-14" value="" style="edgeStyle=orthogonalEdgeStyle;rounded=0;orthogonalLoop=1;jettySize=auto;html=1;" edge="1" parent="1" source="mXeoPQr-HMrJ5cG2zlMf-11" target="mXeoPQr-HMrJ5cG2zlMf-13">
          <mxGeometry relative="1" as="geometry" />
        </mxCell>
        <mxCell id="mXeoPQr-HMrJ5cG2zlMf-15" value="ใช่" style="edgeLabel;html=1;align=center;verticalAlign=middle;resizable=0;points=[];" vertex="1" connectable="0" parent="mXeoPQr-HMrJ5cG2zlMf-14">
          <mxGeometry x="-0.3254" y="2" relative="1" as="geometry">
            <mxPoint x="-2" as="offset" />
          </mxGeometry>
        </mxCell>
        <mxCell id="mXeoPQr-HMrJ5cG2zlMf-16" value="Locked&lt;br style=&quot;border-color: var(--border-color);&quot;&gt;= 1 ?&amp;nbsp;" style="rhombus;whiteSpace=wrap;html=1;" vertex="1" parent="1">
          <mxGeometry x="316.35" y="498" width="60" height="60" as="geometry" />
        </mxCell>
        <mxCell id="mXeoPQr-HMrJ5cG2zlMf-17" value="" style="edgeStyle=orthogonalEdgeStyle;rounded=0;orthogonalLoop=1;jettySize=auto;html=1;" edge="1" parent="1" source="mXeoPQr-HMrJ5cG2zlMf-13" target="mXeoPQr-HMrJ5cG2zlMf-16">
          <mxGeometry relative="1" as="geometry" />
        </mxCell>
        <mxCell id="mXeoPQr-HMrJ5cG2zlMf-18" value="ไม่" style="edgeLabel;html=1;align=center;verticalAlign=middle;resizable=0;points=[];" vertex="1" connectable="0" parent="mXeoPQr-HMrJ5cG2zlMf-17">
          <mxGeometry x="-0.3745" relative="1" as="geometry">
            <mxPoint as="offset" />
          </mxGeometry>
        </mxCell>
        <mxCell id="mXeoPQr-HMrJ5cG2zlMf-19" value="" style="ellipse;whiteSpace=wrap;html=1;aspect=fixed;" vertex="1" parent="1">
          <mxGeometry x="218.75" y="590" width="50" height="50" as="geometry" />
        </mxCell>
        <mxCell id="mXeoPQr-HMrJ5cG2zlMf-20" style="edgeStyle=orthogonalEdgeStyle;rounded=0;orthogonalLoop=1;jettySize=auto;html=1;" edge="1" parent="1" source="mXeoPQr-HMrJ5cG2zlMf-21" target="mXeoPQr-HMrJ5cG2zlMf-19">
          <mxGeometry relative="1" as="geometry">
            <Array as="points">
              <mxPoint x="145" y="283" />
              <mxPoint x="145" y="610" />
            </Array>
          </mxGeometry>
        </mxCell>
        <mxCell id="mXeoPQr-HMrJ5cG2zlMf-21" value="rerturn Error Code&amp;nbsp;001&lt;span style=&quot;font-size: medium; text-align: start;&quot;&gt;&lt;/span&gt;" style="rounded=1;whiteSpace=wrap;html=1;" vertex="1" parent="1">
          <mxGeometry x="155" y="263" width="77.5" height="40" as="geometry" />
        </mxCell>
        <mxCell id="mXeoPQr-HMrJ5cG2zlMf-22" style="edgeStyle=orthogonalEdgeStyle;rounded=0;orthogonalLoop=1;jettySize=auto;html=1;" edge="1" parent="1" source="mXeoPQr-HMrJ5cG2zlMf-11" target="mXeoPQr-HMrJ5cG2zlMf-21">
          <mxGeometry relative="1" as="geometry">
            <mxPoint x="245.10000000000002" y="388" as="targetPoint" />
          </mxGeometry>
        </mxCell>
        <mxCell id="mXeoPQr-HMrJ5cG2zlMf-23" value="ไม่" style="edgeLabel;html=1;align=center;verticalAlign=middle;resizable=0;points=[];" vertex="1" connectable="0" parent="mXeoPQr-HMrJ5cG2zlMf-22">
          <mxGeometry x="-0.6573" y="2" relative="1" as="geometry">
            <mxPoint as="offset" />
          </mxGeometry>
        </mxCell>
        <mxCell id="mXeoPQr-HMrJ5cG2zlMf-24" style="edgeStyle=orthogonalEdgeStyle;rounded=0;orthogonalLoop=1;jettySize=auto;html=1;entryX=0.5;entryY=0;entryDx=0;entryDy=0;" edge="1" parent="1" source="mXeoPQr-HMrJ5cG2zlMf-25" target="mXeoPQr-HMrJ5cG2zlMf-19">
          <mxGeometry relative="1" as="geometry" />
        </mxCell>
        <mxCell id="mXeoPQr-HMrJ5cG2zlMf-25" value="rerturn Error Code&amp;nbsp;011&lt;span style=&quot;font-size: medium; text-align: start;&quot;&gt;&lt;/span&gt;" style="rounded=1;whiteSpace=wrap;html=1;" vertex="1" parent="1">
          <mxGeometry x="205" y="508" width="77.5" height="40" as="geometry" />
        </mxCell>
        <mxCell id="mXeoPQr-HMrJ5cG2zlMf-26" value="" style="edgeStyle=orthogonalEdgeStyle;rounded=0;orthogonalLoop=1;jettySize=auto;html=1;" edge="1" parent="1" source="mXeoPQr-HMrJ5cG2zlMf-16" target="mXeoPQr-HMrJ5cG2zlMf-25">
          <mxGeometry relative="1" as="geometry" />
        </mxCell>
        <mxCell id="mXeoPQr-HMrJ5cG2zlMf-27" value="ใช่" style="edgeLabel;html=1;align=center;verticalAlign=middle;resizable=0;points=[];" vertex="1" connectable="0" parent="mXeoPQr-HMrJ5cG2zlMf-26">
          <mxGeometry x="-0.4608" y="1" relative="1" as="geometry">
            <mxPoint as="offset" />
          </mxGeometry>
        </mxCell>
        <mxCell id="mXeoPQr-HMrJ5cG2zlMf-28" style="edgeStyle=orthogonalEdgeStyle;rounded=0;orthogonalLoop=1;jettySize=auto;html=1;" edge="1" parent="1" source="mXeoPQr-HMrJ5cG2zlMf-29" target="mXeoPQr-HMrJ5cG2zlMf-19">
          <mxGeometry relative="1" as="geometry">
            <mxPoint x="245" y="590" as="targetPoint" />
            <Array as="points">
              <mxPoint x="185" y="398" />
              <mxPoint x="185" y="600" />
            </Array>
          </mxGeometry>
        </mxCell>
        <mxCell id="mXeoPQr-HMrJ5cG2zlMf-29" value="rerturn Error Code&amp;nbsp;004&lt;span style=&quot;font-size: medium; text-align: start;&quot;&gt;&lt;/span&gt;" style="rounded=1;whiteSpace=wrap;html=1;" vertex="1" parent="1">
          <mxGeometry x="205" y="378" width="77.5" height="40" as="geometry" />
        </mxCell>
        <mxCell id="mXeoPQr-HMrJ5cG2zlMf-30" value="" style="edgeStyle=orthogonalEdgeStyle;rounded=0;orthogonalLoop=1;jettySize=auto;html=1;" edge="1" parent="1" source="mXeoPQr-HMrJ5cG2zlMf-13" target="mXeoPQr-HMrJ5cG2zlMf-29">
          <mxGeometry relative="1" as="geometry" />
        </mxCell>
        <mxCell id="mXeoPQr-HMrJ5cG2zlMf-31" value="ใช่" style="edgeLabel;html=1;align=center;verticalAlign=middle;resizable=0;points=[];" vertex="1" connectable="0" parent="mXeoPQr-HMrJ5cG2zlMf-30">
          <mxGeometry x="-0.4608" y="2" relative="1" as="geometry">
            <mxPoint as="offset" />
          </mxGeometry>
        </mxCell>
        <mxCell id="mXeoPQr-HMrJ5cG2zlMf-32" value="" style="edgeStyle=orthogonalEdgeStyle;rounded=0;orthogonalLoop=1;jettySize=auto;html=1;entryX=0.1;entryY=0.5;entryDx=0;entryDy=0;entryPerimeter=0;" edge="1" parent="1" source="mXeoPQr-HMrJ5cG2zlMf-16" target="mXeoPQr-HMrJ5cG2zlMf-35">
          <mxGeometry relative="1" as="geometry">
            <mxPoint x="419" y="528" as="targetPoint" />
          </mxGeometry>
        </mxCell>
        <mxCell id="mXeoPQr-HMrJ5cG2zlMf-33" value="" style="edgeStyle=orthogonalEdgeStyle;rounded=0;orthogonalLoop=1;jettySize=auto;html=1;" edge="1" parent="1" source="mXeoPQr-HMrJ5cG2zlMf-35">
          <mxGeometry relative="1" as="geometry">
            <mxPoint x="535" y="528" as="targetPoint" />
          </mxGeometry>
        </mxCell>
        <mxCell id="mXeoPQr-HMrJ5cG2zlMf-34" value="ไม่" style="edgeLabel;html=1;align=center;verticalAlign=middle;resizable=0;points=[];" vertex="1" connectable="0" parent="mXeoPQr-HMrJ5cG2zlMf-33">
          <mxGeometry x="-0.3115" y="3" relative="1" as="geometry">
            <mxPoint as="offset" />
          </mxGeometry>
        </mxCell>
        <mxCell id="mXeoPQr-HMrJ5cG2zlMf-35" value="Super&lt;br&gt;Admin ?" style="rhombus;whiteSpace=wrap;html=1;" vertex="1" parent="1">
          <mxGeometry x="419" y="492" width="66" height="72" as="geometry" />
        </mxCell>
        <mxCell id="mXeoPQr-HMrJ5cG2zlMf-36" value="ตรวจสอบสิทธิ์การใช้งาน Company นี้ไหม&lt;span style=&quot;font-size: medium; text-align: start;&quot;&gt;&lt;/span&gt;" style="rounded=1;whiteSpace=wrap;html=1;" vertex="1" parent="1">
          <mxGeometry x="535" y="508" width="110" height="42" as="geometry" />
        </mxCell>
        <mxCell id="mXeoPQr-HMrJ5cG2zlMf-37" value="มี ?" style="rhombus;whiteSpace=wrap;html=1;" vertex="1" parent="1">
          <mxGeometry x="557" y="590" width="66" height="72" as="geometry" />
        </mxCell>
        <mxCell id="mXeoPQr-HMrJ5cG2zlMf-38" value="" style="edgeStyle=orthogonalEdgeStyle;rounded=0;orthogonalLoop=1;jettySize=auto;html=1;" edge="1" parent="1" source="mXeoPQr-HMrJ5cG2zlMf-36" target="mXeoPQr-HMrJ5cG2zlMf-37">
          <mxGeometry relative="1" as="geometry" />
        </mxCell>
        <mxCell id="mXeoPQr-HMrJ5cG2zlMf-39" value="Company &lt;br&gt;มีในระบบ&lt;br&gt;ไหม ?" style="rhombus;whiteSpace=wrap;html=1;" vertex="1" parent="1">
          <mxGeometry x="545" y="720" width="90" height="80" as="geometry" />
        </mxCell>
        <mxCell id="mXeoPQr-HMrJ5cG2zlMf-40" value="" style="edgeStyle=orthogonalEdgeStyle;rounded=0;orthogonalLoop=1;jettySize=auto;html=1;" edge="1" parent="1" source="mXeoPQr-HMrJ5cG2zlMf-37" target="mXeoPQr-HMrJ5cG2zlMf-39">
          <mxGeometry relative="1" as="geometry" />
        </mxCell>
        <mxCell id="mXeoPQr-HMrJ5cG2zlMf-41" value="ใช่" style="edgeLabel;html=1;align=center;verticalAlign=middle;resizable=0;points=[];" vertex="1" connectable="0" parent="mXeoPQr-HMrJ5cG2zlMf-40">
          <mxGeometry x="-0.2859" relative="1" as="geometry">
            <mxPoint as="offset" />
          </mxGeometry>
        </mxCell>
        <mxCell id="mXeoPQr-HMrJ5cG2zlMf-42" value="rerturn Error Code&amp;nbsp;002&lt;span style=&quot;font-size: medium; text-align: start;&quot;&gt;&lt;/span&gt;" style="rounded=1;whiteSpace=wrap;html=1;" vertex="1" parent="1">
          <mxGeometry x="685" y="606" width="77.5" height="40" as="geometry" />
        </mxCell>
        <mxCell id="mXeoPQr-HMrJ5cG2zlMf-43" style="edgeStyle=orthogonalEdgeStyle;rounded=0;orthogonalLoop=1;jettySize=auto;html=1;" edge="1" parent="1" source="mXeoPQr-HMrJ5cG2zlMf-37" target="mXeoPQr-HMrJ5cG2zlMf-42">
          <mxGeometry relative="1" as="geometry">
            <mxPoint x="685" y="625.9999999999998" as="targetPoint" />
          </mxGeometry>
        </mxCell>
        <mxCell id="mXeoPQr-HMrJ5cG2zlMf-44" value="ไม่" style="edgeLabel;html=1;align=center;verticalAlign=middle;resizable=0;points=[];" vertex="1" connectable="0" parent="mXeoPQr-HMrJ5cG2zlMf-43">
          <mxGeometry x="-0.0865" y="2" relative="1" as="geometry">
            <mxPoint as="offset" />
          </mxGeometry>
        </mxCell>
        <mxCell id="mXeoPQr-HMrJ5cG2zlMf-45" value="Company &lt;br&gt;Active ?" style="rhombus;whiteSpace=wrap;html=1;" vertex="1" parent="1">
          <mxGeometry x="545" y="840" width="90" height="80" as="geometry" />
        </mxCell>
        <mxCell id="mXeoPQr-HMrJ5cG2zlMf-46" value="ใช่" style="edgeStyle=orthogonalEdgeStyle;rounded=0;orthogonalLoop=1;jettySize=auto;html=1;" edge="1" parent="1" source="mXeoPQr-HMrJ5cG2zlMf-39" target="mXeoPQr-HMrJ5cG2zlMf-45">
          <mxGeometry relative="1" as="geometry" />
        </mxCell>
        <mxCell id="mXeoPQr-HMrJ5cG2zlMf-47" value="rerturn Error Code&amp;nbsp;007&lt;span style=&quot;font-size: medium; text-align: start;&quot;&gt;&lt;/span&gt;" style="rounded=1;whiteSpace=wrap;html=1;" vertex="1" parent="1">
          <mxGeometry x="685" y="740" width="77.5" height="40" as="geometry" />
        </mxCell>
        <mxCell id="mXeoPQr-HMrJ5cG2zlMf-48" value="" style="edgeStyle=orthogonalEdgeStyle;rounded=0;orthogonalLoop=1;jettySize=auto;html=1;" edge="1" parent="1" source="mXeoPQr-HMrJ5cG2zlMf-39" target="mXeoPQr-HMrJ5cG2zlMf-47">
          <mxGeometry relative="1" as="geometry" />
        </mxCell>
        <mxCell id="mXeoPQr-HMrJ5cG2zlMf-49" value="ไม่" style="edgeLabel;html=1;align=center;verticalAlign=middle;resizable=0;points=[];" vertex="1" connectable="0" parent="mXeoPQr-HMrJ5cG2zlMf-48">
          <mxGeometry x="-0.1127" relative="1" as="geometry">
            <mxPoint as="offset" />
          </mxGeometry>
        </mxCell>
        <mxCell id="mXeoPQr-HMrJ5cG2zlMf-50" value="rerturn Error Code&amp;nbsp;051&lt;span style=&quot;font-size: medium; text-align: start;&quot;&gt;&lt;/span&gt;" style="rounded=1;whiteSpace=wrap;html=1;" vertex="1" parent="1">
          <mxGeometry x="685" y="860" width="77.5" height="40" as="geometry" />
        </mxCell>
        <mxCell id="mXeoPQr-HMrJ5cG2zlMf-51" value="" style="edgeStyle=orthogonalEdgeStyle;rounded=0;orthogonalLoop=1;jettySize=auto;html=1;" edge="1" parent="1" source="mXeoPQr-HMrJ5cG2zlMf-45" target="mXeoPQr-HMrJ5cG2zlMf-50">
          <mxGeometry relative="1" as="geometry" />
        </mxCell>
        <mxCell id="mXeoPQr-HMrJ5cG2zlMf-52" value="ไม่" style="edgeLabel;html=1;align=center;verticalAlign=middle;resizable=0;points=[];" vertex="1" connectable="0" parent="mXeoPQr-HMrJ5cG2zlMf-51">
          <mxGeometry x="-0.2152" y="2" relative="1" as="geometry">
            <mxPoint as="offset" />
          </mxGeometry>
        </mxCell>
        <mxCell id="mXeoPQr-HMrJ5cG2zlMf-53" value="" style="edgeStyle=orthogonalEdgeStyle;rounded=0;orthogonalLoop=1;jettySize=auto;html=1;" edge="1" parent="1" source="mXeoPQr-HMrJ5cG2zlMf-54" target="mXeoPQr-HMrJ5cG2zlMf-70">
          <mxGeometry relative="1" as="geometry" />
        </mxCell>
        <mxCell id="mXeoPQr-HMrJ5cG2zlMf-54" value="ดึงข้อมูลผู้ตรวจสอบบัญชี" style="rounded=1;whiteSpace=wrap;html=1;" vertex="1" parent="1">
          <mxGeometry x="392" y="860" width="120" height="40" as="geometry" />
        </mxCell>
        <mxCell id="mXeoPQr-HMrJ5cG2zlMf-55" style="edgeStyle=orthogonalEdgeStyle;rounded=0;orthogonalLoop=1;jettySize=auto;html=1;entryX=0.5;entryY=0;entryDx=0;entryDy=0;" edge="1" parent="1" source="mXeoPQr-HMrJ5cG2zlMf-35" target="mXeoPQr-HMrJ5cG2zlMf-54">
          <mxGeometry relative="1" as="geometry">
            <mxPoint x="452" y="920" as="targetPoint" />
          </mxGeometry>
        </mxCell>
        <mxCell id="mXeoPQr-HMrJ5cG2zlMf-56" value="ใช่" style="edgeLabel;html=1;align=center;verticalAlign=middle;resizable=0;points=[];" vertex="1" connectable="0" parent="mXeoPQr-HMrJ5cG2zlMf-55">
          <mxGeometry x="-0.3215" y="2" relative="1" as="geometry">
            <mxPoint as="offset" />
          </mxGeometry>
        </mxCell>
        <mxCell id="mXeoPQr-HMrJ5cG2zlMf-57" style="edgeStyle=orthogonalEdgeStyle;rounded=0;orthogonalLoop=1;jettySize=auto;html=1;entryX=1;entryY=0.5;entryDx=0;entryDy=0;" edge="1" parent="1" source="mXeoPQr-HMrJ5cG2zlMf-45" target="mXeoPQr-HMrJ5cG2zlMf-54">
          <mxGeometry relative="1" as="geometry">
            <Array as="points">
              <mxPoint x="512" y="880" />
            </Array>
          </mxGeometry>
        </mxCell>
        <mxCell id="mXeoPQr-HMrJ5cG2zlMf-58" value="" style="ellipse;whiteSpace=wrap;html=1;aspect=fixed;" vertex="1" parent="1">
          <mxGeometry x="698.75" y="970" width="50" height="50" as="geometry" />
        </mxCell>
        <mxCell id="mXeoPQr-HMrJ5cG2zlMf-59" style="edgeStyle=orthogonalEdgeStyle;rounded=0;orthogonalLoop=1;jettySize=auto;html=1;entryX=1;entryY=0.5;entryDx=0;entryDy=0;" edge="1" parent="1" source="mXeoPQr-HMrJ5cG2zlMf-42" target="mXeoPQr-HMrJ5cG2zlMf-58">
          <mxGeometry relative="1" as="geometry">
            <mxPoint x="785" y="780" as="targetPoint" />
            <Array as="points">
              <mxPoint x="783" y="626" />
              <mxPoint x="783" y="995" />
            </Array>
          </mxGeometry>
        </mxCell>
        <mxCell id="mXeoPQr-HMrJ5cG2zlMf-60" style="edgeStyle=orthogonalEdgeStyle;rounded=0;orthogonalLoop=1;jettySize=auto;html=1;entryX=1;entryY=0;entryDx=0;entryDy=0;" edge="1" parent="1" source="mXeoPQr-HMrJ5cG2zlMf-47" target="mXeoPQr-HMrJ5cG2zlMf-58">
          <mxGeometry relative="1" as="geometry">
            <Array as="points">
              <mxPoint x="775" y="760" />
              <mxPoint x="775" y="977" />
            </Array>
          </mxGeometry>
        </mxCell>
        <mxCell id="mXeoPQr-HMrJ5cG2zlMf-61" style="edgeStyle=orthogonalEdgeStyle;rounded=0;orthogonalLoop=1;jettySize=auto;html=1;" edge="1" parent="1" source="mXeoPQr-HMrJ5cG2zlMf-50" target="mXeoPQr-HMrJ5cG2zlMf-58">
          <mxGeometry relative="1" as="geometry" />
        </mxCell>
        <mxCell id="mXeoPQr-HMrJ5cG2zlMf-62" value="สิ้นสุด" style="ellipse;whiteSpace=wrap;html=1;" vertex="1" parent="1">
          <mxGeometry x="367" y="1070" width="103" height="60" as="geometry" />
        </mxCell>
        <mxCell id="mXeoPQr-HMrJ5cG2zlMf-63" style="edgeStyle=orthogonalEdgeStyle;rounded=0;orthogonalLoop=1;jettySize=auto;html=1;entryX=0;entryY=0.5;entryDx=0;entryDy=0;" edge="1" parent="1" source="mXeoPQr-HMrJ5cG2zlMf-19" target="mXeoPQr-HMrJ5cG2zlMf-62">
          <mxGeometry relative="1" as="geometry">
            <Array as="points">
              <mxPoint x="244" y="1100" />
            </Array>
          </mxGeometry>
        </mxCell>
        <mxCell id="mXeoPQr-HMrJ5cG2zlMf-64" style="edgeStyle=orthogonalEdgeStyle;rounded=0;orthogonalLoop=1;jettySize=auto;html=1;entryX=1;entryY=1;entryDx=0;entryDy=0;" edge="1" parent="1" source="mXeoPQr-HMrJ5cG2zlMf-58" target="mXeoPQr-HMrJ5cG2zlMf-62">
          <mxGeometry relative="1" as="geometry">
            <Array as="points">
              <mxPoint x="724" y="1120" />
              <mxPoint x="455" y="1120" />
            </Array>
          </mxGeometry>
        </mxCell>
        <mxCell id="mXeoPQr-HMrJ5cG2zlMf-65" style="edgeStyle=orthogonalEdgeStyle;rounded=0;orthogonalLoop=1;jettySize=auto;html=1;entryX=0;entryY=0;entryDx=0;entryDy=0;" edge="1" parent="1" source="mXeoPQr-HMrJ5cG2zlMf-66" target="mXeoPQr-HMrJ5cG2zlMf-62">
          <mxGeometry relative="1" as="geometry">
            <Array as="points">
              <mxPoint x="340" y="1080" />
              <mxPoint x="380" y="1080" />
              <mxPoint x="380" y="1079" />
            </Array>
          </mxGeometry>
        </mxCell>
        <mxCell id="mXeoPQr-HMrJ5cG2zlMf-66" value="ส่งกลับข้อมูลผู้ตรวจสอบบัญชี" style="rounded=1;whiteSpace=wrap;html=1;" vertex="1" parent="1">
          <mxGeometry x="280" y="930" width="120" height="40" as="geometry" />
        </mxCell>
        <mxCell id="mXeoPQr-HMrJ5cG2zlMf-67" value="" style="edgeStyle=orthogonalEdgeStyle;rounded=0;orthogonalLoop=1;jettySize=auto;html=1;" edge="1" parent="1" source="mXeoPQr-HMrJ5cG2zlMf-70" target="mXeoPQr-HMrJ5cG2zlMf-66">
          <mxGeometry relative="1" as="geometry" />
        </mxCell>
        <mxCell id="mXeoPQr-HMrJ5cG2zlMf-68" value="ใช่" style="edgeLabel;html=1;align=center;verticalAlign=middle;resizable=0;points=[];" vertex="1" connectable="0" parent="mXeoPQr-HMrJ5cG2zlMf-67">
          <mxGeometry x="-0.3989" y="-1" relative="1" as="geometry">
            <mxPoint y="2" as="offset" />
          </mxGeometry>
        </mxCell>
        <mxCell id="mXeoPQr-HMrJ5cG2zlMf-69" style="edgeStyle=orthogonalEdgeStyle;rounded=0;orthogonalLoop=1;jettySize=auto;html=1;" edge="1" parent="1" source="mXeoPQr-HMrJ5cG2zlMf-70" target="mXeoPQr-HMrJ5cG2zlMf-72">
          <mxGeometry relative="1" as="geometry" />
        </mxCell>
        <mxCell id="mXeoPQr-HMrJ5cG2zlMf-70" value="มี?" style="rhombus;whiteSpace=wrap;html=1;" vertex="1" parent="1">
          <mxGeometry x="427.75" y="930" width="48.5" height="40" as="geometry" />
        </mxCell>
        <mxCell id="mXeoPQr-HMrJ5cG2zlMf-71" style="edgeStyle=orthogonalEdgeStyle;rounded=0;orthogonalLoop=1;jettySize=auto;html=1;" edge="1" parent="1" source="mXeoPQr-HMrJ5cG2zlMf-72" target="mXeoPQr-HMrJ5cG2zlMf-62">
          <mxGeometry relative="1" as="geometry" />
        </mxCell>
        <mxCell id="mXeoPQr-HMrJ5cG2zlMf-72" value="return Error code 053" style="rounded=1;whiteSpace=wrap;html=1;" vertex="1" parent="1">
          <mxGeometry x="477" y="1000" width="80" height="50" as="geometry" />
        </mxCell>
      </root>
    </mxGraphModel>
  </diagram>
  <diagram id="EDgzjieGwn1Inr4tecn7" name="หน้า-3">
    <mxGraphModel dx="790" dy="697" grid="1" gridSize="10" guides="1" tooltips="1" connect="1" arrows="1" fold="1" page="1" pageScale="1" pageWidth="827" pageHeight="1169" math="0" shadow="0">
      <root>
        <mxCell id="0" />
        <mxCell id="1" parent="0" />
        <mxCell id="10JJFGKGpy7WzZFfpZtA-1" value="เริ่ม" style="ellipse;whiteSpace=wrap;html=1;" vertex="1" parent="1">
          <mxGeometry x="75" y="20" width="80" height="40" as="geometry" />
        </mxCell>
        <mxCell id="10JJFGKGpy7WzZFfpZtA-2" value="ตรวจสอบสิทธิ์การใช้งาน" style="rounded=1;whiteSpace=wrap;html=1;" vertex="1" parent="1">
          <mxGeometry x="45" y="100" width="140" height="30" as="geometry" />
        </mxCell>
        <mxCell id="10JJFGKGpy7WzZFfpZtA-3" value="" style="edgeStyle=orthogonalEdgeStyle;rounded=0;orthogonalLoop=1;jettySize=auto;html=1;" edge="1" parent="1" source="10JJFGKGpy7WzZFfpZtA-1" target="10JJFGKGpy7WzZFfpZtA-2">
          <mxGeometry relative="1" as="geometry" />
        </mxCell>
        <mxCell id="10JJFGKGpy7WzZFfpZtA-4" value="มี ?" style="rhombus;whiteSpace=wrap;html=1;" vertex="1" parent="1">
          <mxGeometry x="85" y="160" width="60" height="60" as="geometry" />
        </mxCell>
        <mxCell id="10JJFGKGpy7WzZFfpZtA-5" value="" style="edgeStyle=orthogonalEdgeStyle;rounded=0;orthogonalLoop=1;jettySize=auto;html=1;" edge="1" parent="1" source="10JJFGKGpy7WzZFfpZtA-2" target="10JJFGKGpy7WzZFfpZtA-4">
          <mxGeometry relative="1" as="geometry" />
        </mxCell>
        <mxCell id="10JJFGKGpy7WzZFfpZtA-6" style="edgeStyle=orthogonalEdgeStyle;rounded=0;orthogonalLoop=1;jettySize=auto;html=1;entryX=-0.022;entryY=0.676;entryDx=0;entryDy=0;entryPerimeter=0;" edge="1" parent="1" source="10JJFGKGpy7WzZFfpZtA-4" target="10JJFGKGpy7WzZFfpZtA-19">
          <mxGeometry relative="1" as="geometry">
            <Array as="points">
              <mxPoint x="115" y="696" />
            </Array>
            <mxPoint x="270" y="730" as="targetPoint" />
          </mxGeometry>
        </mxCell>
        <mxCell id="10JJFGKGpy7WzZFfpZtA-7" value="ไม่" style="edgeLabel;html=1;align=center;verticalAlign=middle;resizable=0;points=[];" vertex="1" connectable="0" parent="10JJFGKGpy7WzZFfpZtA-6">
          <mxGeometry x="-0.8925" y="1" relative="1" as="geometry">
            <mxPoint as="offset" />
          </mxGeometry>
        </mxCell>
        <mxCell id="10JJFGKGpy7WzZFfpZtA-8" value="ตรวจสอบ Account &lt;br&gt;สถานะการใช้งาน" style="rounded=1;whiteSpace=wrap;html=1;" vertex="1" parent="1">
          <mxGeometry x="261.35" y="169" width="170" height="40" as="geometry" />
        </mxCell>
        <mxCell id="10JJFGKGpy7WzZFfpZtA-9" value="" style="edgeStyle=orthogonalEdgeStyle;rounded=0;orthogonalLoop=1;jettySize=auto;html=1;" edge="1" parent="1" source="10JJFGKGpy7WzZFfpZtA-4" target="10JJFGKGpy7WzZFfpZtA-8">
          <mxGeometry relative="1" as="geometry">
            <Array as="points">
              <mxPoint x="225" y="190" />
              <mxPoint x="225" y="190" />
            </Array>
          </mxGeometry>
        </mxCell>
        <mxCell id="10JJFGKGpy7WzZFfpZtA-10" value="ใช่" style="edgeLabel;html=1;align=center;verticalAlign=middle;resizable=0;points=[];" vertex="1" connectable="0" parent="10JJFGKGpy7WzZFfpZtA-9">
          <mxGeometry x="-0.7797" y="-1" relative="1" as="geometry">
            <mxPoint as="offset" />
          </mxGeometry>
        </mxCell>
        <mxCell id="10JJFGKGpy7WzZFfpZtA-11" value="มีใน&lt;br&gt;ระบบ &lt;br&gt;?" style="rhombus;whiteSpace=wrap;html=1;" vertex="1" parent="1">
          <mxGeometry x="339" y="248" width="75" height="70" as="geometry" />
        </mxCell>
        <mxCell id="10JJFGKGpy7WzZFfpZtA-12" value="" style="edgeStyle=orthogonalEdgeStyle;rounded=0;orthogonalLoop=1;jettySize=auto;html=1;" edge="1" parent="1" source="10JJFGKGpy7WzZFfpZtA-8" target="10JJFGKGpy7WzZFfpZtA-11">
          <mxGeometry relative="1" as="geometry" />
        </mxCell>
        <mxCell id="10JJFGKGpy7WzZFfpZtA-13" value="status&lt;br style=&quot;border-color: var(--border-color);&quot;&gt;= 1 ?" style="rhombus;whiteSpace=wrap;html=1;" vertex="1" parent="1">
          <mxGeometry x="367" y="368" width="60" height="60" as="geometry" />
        </mxCell>
        <mxCell id="10JJFGKGpy7WzZFfpZtA-14" value="" style="edgeStyle=orthogonalEdgeStyle;rounded=0;orthogonalLoop=1;jettySize=auto;html=1;" edge="1" parent="1" source="10JJFGKGpy7WzZFfpZtA-11" target="10JJFGKGpy7WzZFfpZtA-13">
          <mxGeometry relative="1" as="geometry" />
        </mxCell>
        <mxCell id="10JJFGKGpy7WzZFfpZtA-15" value="ใช่" style="edgeLabel;html=1;align=center;verticalAlign=middle;resizable=0;points=[];" vertex="1" connectable="0" parent="10JJFGKGpy7WzZFfpZtA-14">
          <mxGeometry x="-0.3254" y="2" relative="1" as="geometry">
            <mxPoint x="-2" as="offset" />
          </mxGeometry>
        </mxCell>
        <mxCell id="10JJFGKGpy7WzZFfpZtA-16" value="Locked&lt;br style=&quot;border-color: var(--border-color);&quot;&gt;= 1 ?&amp;nbsp;" style="rhombus;whiteSpace=wrap;html=1;" vertex="1" parent="1">
          <mxGeometry x="367.75" y="498" width="60" height="60" as="geometry" />
        </mxCell>
        <mxCell id="10JJFGKGpy7WzZFfpZtA-17" value="" style="edgeStyle=orthogonalEdgeStyle;rounded=0;orthogonalLoop=1;jettySize=auto;html=1;" edge="1" parent="1" source="10JJFGKGpy7WzZFfpZtA-13" target="10JJFGKGpy7WzZFfpZtA-16">
          <mxGeometry relative="1" as="geometry" />
        </mxCell>
        <mxCell id="10JJFGKGpy7WzZFfpZtA-18" value="ไม่" style="edgeLabel;html=1;align=center;verticalAlign=middle;resizable=0;points=[];" vertex="1" connectable="0" parent="10JJFGKGpy7WzZFfpZtA-17">
          <mxGeometry x="-0.3745" relative="1" as="geometry">
            <mxPoint as="offset" />
          </mxGeometry>
        </mxCell>
        <mxCell id="10JJFGKGpy7WzZFfpZtA-19" value="1" style="ellipse;whiteSpace=wrap;html=1;aspect=fixed;" vertex="1" parent="1">
          <mxGeometry x="197.5" y="662" width="50" height="50" as="geometry" />
        </mxCell>
        <mxCell id="10JJFGKGpy7WzZFfpZtA-20" style="edgeStyle=orthogonalEdgeStyle;rounded=0;orthogonalLoop=1;jettySize=auto;html=1;exitX=0.492;exitY=0.949;exitDx=0;exitDy=0;exitPerimeter=0;" edge="1" parent="1" source="10JJFGKGpy7WzZFfpZtA-21" target="10JJFGKGpy7WzZFfpZtA-19">
          <mxGeometry relative="1" as="geometry">
            <Array as="points">
              <mxPoint x="166" y="376" />
              <mxPoint x="150" y="376" />
              <mxPoint x="150" y="680" />
            </Array>
          </mxGeometry>
        </mxCell>
        <mxCell id="10JJFGKGpy7WzZFfpZtA-21" value="rerturn Error Code&amp;nbsp;001&lt;span style=&quot;font-size: medium; text-align: start;&quot;&gt;&lt;/span&gt;" style="rounded=1;whiteSpace=wrap;html=1;" vertex="1" parent="1">
          <mxGeometry x="127.5" y="328" width="77.5" height="40" as="geometry" />
        </mxCell>
        <mxCell id="10JJFGKGpy7WzZFfpZtA-22" style="edgeStyle=orthogonalEdgeStyle;rounded=0;orthogonalLoop=1;jettySize=auto;html=1;entryX=1;entryY=1;entryDx=0;entryDy=0;" edge="1" parent="1" source="10JJFGKGpy7WzZFfpZtA-23" target="10JJFGKGpy7WzZFfpZtA-19">
          <mxGeometry relative="1" as="geometry">
            <Array as="points">
              <mxPoint x="302" y="705" />
              <mxPoint x="244" y="705" />
            </Array>
          </mxGeometry>
        </mxCell>
        <mxCell id="10JJFGKGpy7WzZFfpZtA-23" value="rerturn Error Code&amp;nbsp;011&lt;span style=&quot;font-size: medium; text-align: start;&quot;&gt;&lt;/span&gt;" style="rounded=1;whiteSpace=wrap;html=1;" vertex="1" parent="1">
          <mxGeometry x="263.5" y="646" width="77.5" height="40" as="geometry" />
        </mxCell>
        <mxCell id="10JJFGKGpy7WzZFfpZtA-24" value="" style="edgeStyle=orthogonalEdgeStyle;rounded=0;orthogonalLoop=1;jettySize=auto;html=1;entryX=0.467;entryY=0.027;entryDx=0;entryDy=0;entryPerimeter=0;" edge="1" parent="1" source="10JJFGKGpy7WzZFfpZtA-68" target="10JJFGKGpy7WzZFfpZtA-70">
          <mxGeometry relative="1" as="geometry" />
        </mxCell>
        <mxCell id="10JJFGKGpy7WzZFfpZtA-25" style="edgeStyle=orthogonalEdgeStyle;rounded=0;orthogonalLoop=1;jettySize=auto;html=1;" edge="1" parent="1" source="10JJFGKGpy7WzZFfpZtA-26" target="10JJFGKGpy7WzZFfpZtA-19">
          <mxGeometry relative="1" as="geometry">
            <mxPoint x="190" y="630" as="targetPoint" />
            <Array as="points">
              <mxPoint x="209" y="660" />
              <mxPoint x="209" y="660" />
            </Array>
          </mxGeometry>
        </mxCell>
        <mxCell id="10JJFGKGpy7WzZFfpZtA-26" value="rerturn Error Code&amp;nbsp;004&lt;span style=&quot;font-size: medium; text-align: start;&quot;&gt;&lt;/span&gt;" style="rounded=1;whiteSpace=wrap;html=1;" vertex="1" parent="1">
          <mxGeometry x="170" y="468" width="77.5" height="40" as="geometry" />
        </mxCell>
        <mxCell id="10JJFGKGpy7WzZFfpZtA-27" value="" style="edgeStyle=orthogonalEdgeStyle;rounded=0;orthogonalLoop=1;jettySize=auto;html=1;" edge="1" parent="1" source="10JJFGKGpy7WzZFfpZtA-13" target="10JJFGKGpy7WzZFfpZtA-63">
          <mxGeometry relative="1" as="geometry">
            <mxPoint x="300" y="380" as="targetPoint" />
          </mxGeometry>
        </mxCell>
        <mxCell id="10JJFGKGpy7WzZFfpZtA-28" value="ใช่" style="edgeLabel;html=1;align=center;verticalAlign=middle;resizable=0;points=[];" vertex="1" connectable="0" parent="10JJFGKGpy7WzZFfpZtA-27">
          <mxGeometry x="-0.4608" y="2" relative="1" as="geometry">
            <mxPoint as="offset" />
          </mxGeometry>
        </mxCell>
        <mxCell id="10JJFGKGpy7WzZFfpZtA-29" value="" style="edgeStyle=orthogonalEdgeStyle;rounded=0;orthogonalLoop=1;jettySize=auto;html=1;entryX=0.1;entryY=0.5;entryDx=0;entryDy=0;entryPerimeter=0;" edge="1" parent="1" source="10JJFGKGpy7WzZFfpZtA-16" target="10JJFGKGpy7WzZFfpZtA-32">
          <mxGeometry relative="1" as="geometry">
            <mxPoint x="419" y="528" as="targetPoint" />
            <Array as="points">
              <mxPoint x="460" y="528" />
              <mxPoint x="460" y="354" />
            </Array>
          </mxGeometry>
        </mxCell>
        <mxCell id="10JJFGKGpy7WzZFfpZtA-30" value="" style="edgeStyle=orthogonalEdgeStyle;rounded=0;orthogonalLoop=1;jettySize=auto;html=1;" edge="1" parent="1" source="10JJFGKGpy7WzZFfpZtA-32" target="10JJFGKGpy7WzZFfpZtA-33">
          <mxGeometry relative="1" as="geometry">
            <mxPoint x="535" y="528" as="targetPoint" />
            <Array as="points">
              <mxPoint x="590" y="354" />
            </Array>
          </mxGeometry>
        </mxCell>
        <mxCell id="10JJFGKGpy7WzZFfpZtA-31" value="ไม่" style="edgeLabel;html=1;align=center;verticalAlign=middle;resizable=0;points=[];" vertex="1" connectable="0" parent="10JJFGKGpy7WzZFfpZtA-30">
          <mxGeometry x="-0.3115" y="3" relative="1" as="geometry">
            <mxPoint as="offset" />
          </mxGeometry>
        </mxCell>
        <mxCell id="10JJFGKGpy7WzZFfpZtA-32" value="Super&lt;br&gt;Admin ?" style="rhombus;whiteSpace=wrap;html=1;" vertex="1" parent="1">
          <mxGeometry x="476.25" y="318" width="66" height="72" as="geometry" />
        </mxCell>
        <mxCell id="10JJFGKGpy7WzZFfpZtA-33" value="ตรวจสอบสิทธิ์การใช้งาน Company นี้ไหม&lt;span style=&quot;font-size: medium; text-align: start;&quot;&gt;&lt;/span&gt;" style="rounded=1;whiteSpace=wrap;html=1;" vertex="1" parent="1">
          <mxGeometry x="535" y="508" width="110" height="42" as="geometry" />
        </mxCell>
        <mxCell id="10JJFGKGpy7WzZFfpZtA-34" value="มี ?" style="rhombus;whiteSpace=wrap;html=1;" vertex="1" parent="1">
          <mxGeometry x="557" y="590" width="66" height="72" as="geometry" />
        </mxCell>
        <mxCell id="10JJFGKGpy7WzZFfpZtA-35" value="" style="edgeStyle=orthogonalEdgeStyle;rounded=0;orthogonalLoop=1;jettySize=auto;html=1;" edge="1" parent="1" source="10JJFGKGpy7WzZFfpZtA-33" target="10JJFGKGpy7WzZFfpZtA-34">
          <mxGeometry relative="1" as="geometry" />
        </mxCell>
        <mxCell id="10JJFGKGpy7WzZFfpZtA-36" value="Company &lt;br&gt;มีในระบบ&lt;br&gt;ไหม ?" style="rhombus;whiteSpace=wrap;html=1;" vertex="1" parent="1">
          <mxGeometry x="545" y="720" width="90" height="80" as="geometry" />
        </mxCell>
        <mxCell id="10JJFGKGpy7WzZFfpZtA-37" value="" style="edgeStyle=orthogonalEdgeStyle;rounded=0;orthogonalLoop=1;jettySize=auto;html=1;" edge="1" parent="1" source="10JJFGKGpy7WzZFfpZtA-34" target="10JJFGKGpy7WzZFfpZtA-36">
          <mxGeometry relative="1" as="geometry" />
        </mxCell>
        <mxCell id="10JJFGKGpy7WzZFfpZtA-38" value="ใช่" style="edgeLabel;html=1;align=center;verticalAlign=middle;resizable=0;points=[];" vertex="1" connectable="0" parent="10JJFGKGpy7WzZFfpZtA-37">
          <mxGeometry x="-0.2859" relative="1" as="geometry">
            <mxPoint as="offset" />
          </mxGeometry>
        </mxCell>
        <mxCell id="10JJFGKGpy7WzZFfpZtA-39" style="edgeStyle=orthogonalEdgeStyle;rounded=0;orthogonalLoop=1;jettySize=auto;html=1;" edge="1" parent="1">
          <mxGeometry relative="1" as="geometry">
            <mxPoint x="737.5" y="626" as="sourcePoint" />
            <mxPoint x="760" y="626" as="targetPoint" />
          </mxGeometry>
        </mxCell>
        <mxCell id="10JJFGKGpy7WzZFfpZtA-40" style="edgeStyle=orthogonalEdgeStyle;rounded=0;orthogonalLoop=1;jettySize=auto;html=1;" edge="1" parent="1" source="10JJFGKGpy7WzZFfpZtA-34">
          <mxGeometry relative="1" as="geometry">
            <mxPoint x="660" y="626" as="targetPoint" />
          </mxGeometry>
        </mxCell>
        <mxCell id="10JJFGKGpy7WzZFfpZtA-41" value="ไม่" style="edgeLabel;html=1;align=center;verticalAlign=middle;resizable=0;points=[];" vertex="1" connectable="0" parent="10JJFGKGpy7WzZFfpZtA-40">
          <mxGeometry x="-0.0865" y="2" relative="1" as="geometry">
            <mxPoint as="offset" />
          </mxGeometry>
        </mxCell>
        <mxCell id="10JJFGKGpy7WzZFfpZtA-42" style="edgeStyle=orthogonalEdgeStyle;rounded=0;orthogonalLoop=1;jettySize=auto;html=1;entryX=1;entryY=0.5;entryDx=0;entryDy=0;" edge="1" parent="1" source="10JJFGKGpy7WzZFfpZtA-44" target="xUcg2-S4WwVnPB7PX1Bb-1">
          <mxGeometry relative="1" as="geometry" />
        </mxCell>
        <mxCell id="10JJFGKGpy7WzZFfpZtA-43" value="ใช่" style="edgeLabel;html=1;align=center;verticalAlign=middle;resizable=0;points=[];" vertex="1" connectable="0" parent="10JJFGKGpy7WzZFfpZtA-42">
          <mxGeometry x="-0.0994" relative="1" as="geometry">
            <mxPoint as="offset" />
          </mxGeometry>
        </mxCell>
        <mxCell id="10JJFGKGpy7WzZFfpZtA-44" value="Company &lt;br&gt;Active ?" style="rhombus;whiteSpace=wrap;html=1;" vertex="1" parent="1">
          <mxGeometry x="545" y="840" width="90" height="80" as="geometry" />
        </mxCell>
        <mxCell id="10JJFGKGpy7WzZFfpZtA-45" value="ใช่" style="edgeStyle=orthogonalEdgeStyle;rounded=0;orthogonalLoop=1;jettySize=auto;html=1;" edge="1" parent="1" source="10JJFGKGpy7WzZFfpZtA-36" target="10JJFGKGpy7WzZFfpZtA-44">
          <mxGeometry relative="1" as="geometry" />
        </mxCell>
        <mxCell id="10JJFGKGpy7WzZFfpZtA-46" value="" style="edgeStyle=orthogonalEdgeStyle;rounded=0;orthogonalLoop=1;jettySize=auto;html=1;" edge="1" parent="1" source="10JJFGKGpy7WzZFfpZtA-36">
          <mxGeometry relative="1" as="geometry">
            <mxPoint x="685" y="760" as="targetPoint" />
          </mxGeometry>
        </mxCell>
        <mxCell id="10JJFGKGpy7WzZFfpZtA-47" value="ไม่" style="edgeLabel;html=1;align=center;verticalAlign=middle;resizable=0;points=[];" vertex="1" connectable="0" parent="10JJFGKGpy7WzZFfpZtA-46">
          <mxGeometry x="-0.1127" relative="1" as="geometry">
            <mxPoint as="offset" />
          </mxGeometry>
        </mxCell>
        <mxCell id="10JJFGKGpy7WzZFfpZtA-48" value="" style="edgeStyle=orthogonalEdgeStyle;rounded=0;orthogonalLoop=1;jettySize=auto;html=1;" edge="1" parent="1" source="10JJFGKGpy7WzZFfpZtA-44" target="10JJFGKGpy7WzZFfpZtA-83">
          <mxGeometry relative="1" as="geometry">
            <mxPoint x="685" y="880" as="targetPoint" />
          </mxGeometry>
        </mxCell>
        <mxCell id="10JJFGKGpy7WzZFfpZtA-49" value="ไม่" style="edgeLabel;html=1;align=center;verticalAlign=middle;resizable=0;points=[];" vertex="1" connectable="0" parent="10JJFGKGpy7WzZFfpZtA-48">
          <mxGeometry x="-0.2152" y="2" relative="1" as="geometry">
            <mxPoint as="offset" />
          </mxGeometry>
        </mxCell>
        <mxCell id="10JJFGKGpy7WzZFfpZtA-50" style="edgeStyle=orthogonalEdgeStyle;rounded=0;orthogonalLoop=1;jettySize=auto;html=1;" edge="1" parent="1" source="10JJFGKGpy7WzZFfpZtA-32" target="xUcg2-S4WwVnPB7PX1Bb-1">
          <mxGeometry relative="1" as="geometry">
            <mxPoint x="500" y="600" as="targetPoint" />
            <Array as="points">
              <mxPoint x="509" y="540" />
              <mxPoint x="454" y="540" />
            </Array>
          </mxGeometry>
        </mxCell>
        <mxCell id="10JJFGKGpy7WzZFfpZtA-51" value="ใช่" style="edgeLabel;html=1;align=center;verticalAlign=middle;resizable=0;points=[];" vertex="1" connectable="0" parent="10JJFGKGpy7WzZFfpZtA-50">
          <mxGeometry x="-0.3215" y="2" relative="1" as="geometry">
            <mxPoint as="offset" />
          </mxGeometry>
        </mxCell>
        <mxCell id="10JJFGKGpy7WzZFfpZtA-52" style="edgeStyle=orthogonalEdgeStyle;rounded=0;orthogonalLoop=1;jettySize=auto;html=1;entryX=1;entryY=0.5;entryDx=0;entryDy=0;" edge="1" parent="1" source="10JJFGKGpy7WzZFfpZtA-53" target="10JJFGKGpy7WzZFfpZtA-121">
          <mxGeometry relative="1" as="geometry" />
        </mxCell>
        <mxCell id="10JJFGKGpy7WzZFfpZtA-53" value="2" style="ellipse;whiteSpace=wrap;html=1;aspect=fixed;" vertex="1" parent="1">
          <mxGeometry x="698.75" y="970" width="50" height="50" as="geometry" />
        </mxCell>
        <mxCell id="10JJFGKGpy7WzZFfpZtA-54" style="edgeStyle=orthogonalEdgeStyle;rounded=0;orthogonalLoop=1;jettySize=auto;html=1;entryX=1;entryY=0.5;entryDx=0;entryDy=0;" edge="1" parent="1" source="10JJFGKGpy7WzZFfpZtA-73" target="10JJFGKGpy7WzZFfpZtA-53">
          <mxGeometry relative="1" as="geometry">
            <mxPoint x="785" y="780" as="targetPoint" />
            <Array as="points">
              <mxPoint x="910" y="692" />
              <mxPoint x="910" y="995" />
            </Array>
            <mxPoint x="800.0285714285715" y="646" as="sourcePoint" />
          </mxGeometry>
        </mxCell>
        <mxCell id="10JJFGKGpy7WzZFfpZtA-55" style="edgeStyle=orthogonalEdgeStyle;rounded=0;orthogonalLoop=1;jettySize=auto;html=1;entryX=0;entryY=0.5;entryDx=0;entryDy=0;" edge="1" parent="1" target="10JJFGKGpy7WzZFfpZtA-79">
          <mxGeometry relative="1" as="geometry">
            <Array as="points">
              <mxPoint x="780" y="760" />
              <mxPoint x="780" y="760" />
            </Array>
            <mxPoint x="762.5" y="760.037037037037" as="sourcePoint" />
          </mxGeometry>
        </mxCell>
        <mxCell id="10JJFGKGpy7WzZFfpZtA-56" value="" style="edgeStyle=orthogonalEdgeStyle;rounded=0;orthogonalLoop=1;jettySize=auto;html=1;entryX=0.5;entryY=0;entryDx=0;entryDy=0;" edge="1" parent="1" source="10JJFGKGpy7WzZFfpZtA-57" target="10JJFGKGpy7WzZFfpZtA-21">
          <mxGeometry relative="1" as="geometry" />
        </mxCell>
        <mxCell id="10JJFGKGpy7WzZFfpZtA-57" value="บันทึกข้อมูล&lt;span style=&quot;font-size: medium; text-align: start;&quot;&gt;&lt;/span&gt;" style="rounded=1;whiteSpace=wrap;html=1;" vertex="1" parent="1">
          <mxGeometry x="127.5" y="263" width="77.5" height="40" as="geometry" />
        </mxCell>
        <mxCell id="10JJFGKGpy7WzZFfpZtA-58" value="" style="edgeStyle=orthogonalEdgeStyle;rounded=0;orthogonalLoop=1;jettySize=auto;html=1;" edge="1" parent="1" source="10JJFGKGpy7WzZFfpZtA-11" target="10JJFGKGpy7WzZFfpZtA-61">
          <mxGeometry relative="1" as="geometry">
            <mxPoint x="159" y="338" as="targetPoint" />
            <mxPoint x="309" y="283" as="sourcePoint" />
          </mxGeometry>
        </mxCell>
        <mxCell id="10JJFGKGpy7WzZFfpZtA-59" value="ไม่" style="edgeLabel;html=1;align=center;verticalAlign=middle;resizable=0;points=[];" vertex="1" connectable="0" parent="10JJFGKGpy7WzZFfpZtA-58">
          <mxGeometry x="-0.6573" y="2" relative="1" as="geometry">
            <mxPoint as="offset" />
          </mxGeometry>
        </mxCell>
        <mxCell id="10JJFGKGpy7WzZFfpZtA-60" style="edgeStyle=orthogonalEdgeStyle;rounded=0;orthogonalLoop=1;jettySize=auto;html=1;" edge="1" parent="1" source="10JJFGKGpy7WzZFfpZtA-61" target="10JJFGKGpy7WzZFfpZtA-57">
          <mxGeometry relative="1" as="geometry" />
        </mxCell>
        <mxCell id="10JJFGKGpy7WzZFfpZtA-61" value="สร้างข้อมูล ActivityLog&lt;span style=&quot;font-size: medium; text-align: start;&quot;&gt;&lt;/span&gt;" style="rounded=1;whiteSpace=wrap;html=1;" vertex="1" parent="1">
          <mxGeometry x="230" y="263" width="77.5" height="40" as="geometry" />
        </mxCell>
        <mxCell id="10JJFGKGpy7WzZFfpZtA-62" style="edgeStyle=orthogonalEdgeStyle;rounded=0;orthogonalLoop=1;jettySize=auto;html=1;" edge="1" parent="1" source="10JJFGKGpy7WzZFfpZtA-63" target="10JJFGKGpy7WzZFfpZtA-65">
          <mxGeometry relative="1" as="geometry" />
        </mxCell>
        <mxCell id="10JJFGKGpy7WzZFfpZtA-63" value="สร้างข้อมูล ActivityLog&lt;span style=&quot;font-size: medium; text-align: start;&quot;&gt;&lt;/span&gt;" style="rounded=1;whiteSpace=wrap;html=1;" vertex="1" parent="1">
          <mxGeometry x="261.35" y="378" width="77.5" height="40" as="geometry" />
        </mxCell>
        <mxCell id="10JJFGKGpy7WzZFfpZtA-64" style="edgeStyle=orthogonalEdgeStyle;rounded=0;orthogonalLoop=1;jettySize=auto;html=1;entryX=0.5;entryY=0;entryDx=0;entryDy=0;" edge="1" parent="1" source="10JJFGKGpy7WzZFfpZtA-65" target="10JJFGKGpy7WzZFfpZtA-26">
          <mxGeometry relative="1" as="geometry">
            <Array as="points">
              <mxPoint x="194" y="438" />
            </Array>
          </mxGeometry>
        </mxCell>
        <mxCell id="10JJFGKGpy7WzZFfpZtA-65" value="บันทึกข้อมูล&lt;span style=&quot;font-size: medium; text-align: start;&quot;&gt;&lt;/span&gt;" style="rounded=1;whiteSpace=wrap;html=1;" vertex="1" parent="1">
          <mxGeometry x="170" y="378" width="77.5" height="40" as="geometry" />
        </mxCell>
        <mxCell id="10JJFGKGpy7WzZFfpZtA-66" value="" style="edgeStyle=orthogonalEdgeStyle;rounded=0;orthogonalLoop=1;jettySize=auto;html=1;" edge="1" parent="1" source="10JJFGKGpy7WzZFfpZtA-16" target="10JJFGKGpy7WzZFfpZtA-68">
          <mxGeometry relative="1" as="geometry">
            <mxPoint x="368" y="528" as="sourcePoint" />
            <mxPoint x="328" y="585" as="targetPoint" />
          </mxGeometry>
        </mxCell>
        <mxCell id="10JJFGKGpy7WzZFfpZtA-67" value="ใช่" style="edgeLabel;html=1;align=center;verticalAlign=middle;resizable=0;points=[];" vertex="1" connectable="0" parent="10JJFGKGpy7WzZFfpZtA-66">
          <mxGeometry x="-0.4608" y="1" relative="1" as="geometry">
            <mxPoint as="offset" />
          </mxGeometry>
        </mxCell>
        <mxCell id="10JJFGKGpy7WzZFfpZtA-68" value="สร้างข้อมูล ActivityLog&lt;span style=&quot;font-size: medium; text-align: start;&quot;&gt;&lt;/span&gt;" style="rounded=1;whiteSpace=wrap;html=1;" vertex="1" parent="1">
          <mxGeometry x="261.35" y="508" width="77.5" height="40" as="geometry" />
        </mxCell>
        <mxCell id="10JJFGKGpy7WzZFfpZtA-69" value="" style="edgeStyle=orthogonalEdgeStyle;rounded=0;orthogonalLoop=1;jettySize=auto;html=1;" edge="1" parent="1" source="10JJFGKGpy7WzZFfpZtA-70" target="10JJFGKGpy7WzZFfpZtA-23">
          <mxGeometry relative="1" as="geometry" />
        </mxCell>
        <mxCell id="10JJFGKGpy7WzZFfpZtA-70" value="บันทึกข้อมูล&lt;span style=&quot;font-size: medium; text-align: start;&quot;&gt;&lt;/span&gt;" style="rounded=1;whiteSpace=wrap;html=1;" vertex="1" parent="1">
          <mxGeometry x="263.5" y="580" width="77.5" height="40" as="geometry" />
        </mxCell>
        <mxCell id="10JJFGKGpy7WzZFfpZtA-71" style="edgeStyle=orthogonalEdgeStyle;rounded=0;orthogonalLoop=1;jettySize=auto;html=1;entryX=0.5;entryY=0;entryDx=0;entryDy=0;" edge="1" parent="1" source="10JJFGKGpy7WzZFfpZtA-72" target="10JJFGKGpy7WzZFfpZtA-73">
          <mxGeometry relative="1" as="geometry" />
        </mxCell>
        <mxCell id="10JJFGKGpy7WzZFfpZtA-72" value="บันทึกข้อมูล" style="rounded=1;whiteSpace=wrap;html=1;" vertex="1" parent="1">
          <mxGeometry x="760" y="606" width="77.5" height="40" as="geometry" />
        </mxCell>
        <mxCell id="10JJFGKGpy7WzZFfpZtA-73" value="rerturn Error Code&amp;nbsp;002&lt;span style=&quot;font-size: medium; text-align: start;&quot;&gt;&lt;/span&gt;" style="rounded=1;whiteSpace=wrap;html=1;" vertex="1" parent="1">
          <mxGeometry x="760" y="672" width="77.5" height="40" as="geometry" />
        </mxCell>
        <mxCell id="10JJFGKGpy7WzZFfpZtA-74" value="สร้างข้อมูล ActivityLog&lt;span style=&quot;font-size: medium; text-align: start;&quot;&gt;&lt;/span&gt;" style="rounded=1;whiteSpace=wrap;html=1;" vertex="1" parent="1">
          <mxGeometry x="660" y="606" width="77.5" height="40" as="geometry" />
        </mxCell>
        <mxCell id="10JJFGKGpy7WzZFfpZtA-75" style="edgeStyle=orthogonalEdgeStyle;rounded=0;orthogonalLoop=1;jettySize=auto;html=1;" edge="1" parent="1" source="10JJFGKGpy7WzZFfpZtA-76">
          <mxGeometry relative="1" as="geometry">
            <mxPoint x="910" y="820" as="targetPoint" />
          </mxGeometry>
        </mxCell>
        <mxCell id="10JJFGKGpy7WzZFfpZtA-76" value="rerturn Error Code&amp;nbsp;007&lt;span style=&quot;font-size: medium; text-align: start;&quot;&gt;&lt;/span&gt;" style="rounded=1;whiteSpace=wrap;html=1;" vertex="1" parent="1">
          <mxGeometry x="790" y="800" width="77.5" height="40" as="geometry" />
        </mxCell>
        <mxCell id="10JJFGKGpy7WzZFfpZtA-77" value="สร้างข้อมูล ActivityLog&lt;span style=&quot;font-size: medium; text-align: start;&quot;&gt;&lt;/span&gt;" style="rounded=1;whiteSpace=wrap;html=1;" vertex="1" parent="1">
          <mxGeometry x="685" y="740" width="77.5" height="40" as="geometry" />
        </mxCell>
        <mxCell id="10JJFGKGpy7WzZFfpZtA-78" style="edgeStyle=orthogonalEdgeStyle;rounded=0;orthogonalLoop=1;jettySize=auto;html=1;" edge="1" parent="1" source="10JJFGKGpy7WzZFfpZtA-79" target="10JJFGKGpy7WzZFfpZtA-76">
          <mxGeometry relative="1" as="geometry" />
        </mxCell>
        <mxCell id="10JJFGKGpy7WzZFfpZtA-79" value="บันทึกข้อมูล" style="rounded=1;whiteSpace=wrap;html=1;" vertex="1" parent="1">
          <mxGeometry x="790" y="740" width="77.5" height="40" as="geometry" />
        </mxCell>
        <mxCell id="10JJFGKGpy7WzZFfpZtA-80" style="edgeStyle=orthogonalEdgeStyle;rounded=0;orthogonalLoop=1;jettySize=auto;html=1;" edge="1" parent="1" source="10JJFGKGpy7WzZFfpZtA-81" target="10JJFGKGpy7WzZFfpZtA-53">
          <mxGeometry relative="1" as="geometry">
            <mxPoint x="829" y="990" as="targetPoint" />
          </mxGeometry>
        </mxCell>
        <mxCell id="10JJFGKGpy7WzZFfpZtA-81" value="rerturn Error Code&amp;nbsp;051&lt;span style=&quot;font-size: medium; text-align: start;&quot;&gt;&lt;/span&gt;" style="rounded=1;whiteSpace=wrap;html=1;" vertex="1" parent="1">
          <mxGeometry x="790" y="920" width="77.5" height="40" as="geometry" />
        </mxCell>
        <mxCell id="10JJFGKGpy7WzZFfpZtA-82" style="edgeStyle=orthogonalEdgeStyle;rounded=0;orthogonalLoop=1;jettySize=auto;html=1;entryX=-0.036;entryY=0.462;entryDx=0;entryDy=0;entryPerimeter=0;" edge="1" parent="1" source="10JJFGKGpy7WzZFfpZtA-83" target="10JJFGKGpy7WzZFfpZtA-85">
          <mxGeometry relative="1" as="geometry" />
        </mxCell>
        <mxCell id="10JJFGKGpy7WzZFfpZtA-83" value="สร้างข้อมูล ActivityLog&lt;span style=&quot;font-size: medium; text-align: start;&quot;&gt;&lt;/span&gt;" style="rounded=1;whiteSpace=wrap;html=1;" vertex="1" parent="1">
          <mxGeometry x="682.5" y="860" width="77.5" height="40" as="geometry" />
        </mxCell>
        <mxCell id="10JJFGKGpy7WzZFfpZtA-84" style="edgeStyle=orthogonalEdgeStyle;rounded=0;orthogonalLoop=1;jettySize=auto;html=1;" edge="1" parent="1" source="10JJFGKGpy7WzZFfpZtA-85" target="10JJFGKGpy7WzZFfpZtA-81">
          <mxGeometry relative="1" as="geometry" />
        </mxCell>
        <mxCell id="10JJFGKGpy7WzZFfpZtA-85" value="บันทึกข้อมูล" style="rounded=1;whiteSpace=wrap;html=1;" vertex="1" parent="1">
          <mxGeometry x="790" y="860" width="77.5" height="40" as="geometry" />
        </mxCell>
        <mxCell id="10JJFGKGpy7WzZFfpZtA-86" style="edgeStyle=orthogonalEdgeStyle;rounded=0;orthogonalLoop=1;jettySize=auto;html=1;entryX=1;entryY=0.5;entryDx=0;entryDy=0;" edge="1" parent="1" source="10JJFGKGpy7WzZFfpZtA-87" target="10JJFGKGpy7WzZFfpZtA-92">
          <mxGeometry relative="1" as="geometry">
            <Array as="points">
              <mxPoint x="454" y="1019" />
              <mxPoint x="454" y="1149" />
            </Array>
          </mxGeometry>
        </mxCell>
        <mxCell id="10JJFGKGpy7WzZFfpZtA-87" value="Picture?" style="rhombus;whiteSpace=wrap;html=1;" vertex="1" parent="1">
          <mxGeometry x="423.72" y="850" width="60" height="60" as="geometry" />
        </mxCell>
        <mxCell id="10JJFGKGpy7WzZFfpZtA-88" style="edgeStyle=orthogonalEdgeStyle;rounded=0;orthogonalLoop=1;jettySize=auto;html=1;entryX=0.5;entryY=0;entryDx=0;entryDy=0;" edge="1" parent="1" source="10JJFGKGpy7WzZFfpZtA-87" target="10JJFGKGpy7WzZFfpZtA-97">
          <mxGeometry relative="1" as="geometry">
            <mxPoint x="453.72" y="945" as="targetPoint" />
          </mxGeometry>
        </mxCell>
        <mxCell id="10JJFGKGpy7WzZFfpZtA-89" value="ใช่" style="edgeLabel;html=1;align=center;verticalAlign=middle;resizable=0;points=[];" vertex="1" connectable="0" parent="10JJFGKGpy7WzZFfpZtA-88">
          <mxGeometry x="-0.1526" y="1" relative="1" as="geometry">
            <mxPoint as="offset" />
          </mxGeometry>
        </mxCell>
        <mxCell id="10JJFGKGpy7WzZFfpZtA-90" value="" style="group" vertex="1" connectable="0" parent="1">
          <mxGeometry x="61.379999999999995" y="910" width="369.97" height="462.5" as="geometry" />
        </mxCell>
        <mxCell id="10JJFGKGpy7WzZFfpZtA-91" value="" style="group" vertex="1" connectable="0" parent="10JJFGKGpy7WzZFfpZtA-90">
          <mxGeometry x="273.72" y="217.5" width="96.25" height="177.5" as="geometry" />
        </mxCell>
        <mxCell id="10JJFGKGpy7WzZFfpZtA-92" value="สร้างข้อมูลผู้ตรวจสอบบัญชี&lt;span style=&quot;font-size: medium; text-align: start;&quot;&gt;&lt;/span&gt;" style="rounded=1;whiteSpace=wrap;html=1;" vertex="1" parent="10JJFGKGpy7WzZFfpZtA-91">
          <mxGeometry x="-5" width="106.25" height="42.5" as="geometry" />
        </mxCell>
        <mxCell id="10JJFGKGpy7WzZFfpZtA-93" value="สร้างข้อมูล ActivityLog&lt;span style=&quot;font-size: medium; text-align: start;&quot;&gt;&lt;/span&gt;" style="rounded=1;whiteSpace=wrap;html=1;" vertex="1" parent="10JJFGKGpy7WzZFfpZtA-91">
          <mxGeometry x="6.25" y="67.5" width="77.5" height="40" as="geometry" />
        </mxCell>
        <mxCell id="10JJFGKGpy7WzZFfpZtA-94" value="" style="edgeStyle=orthogonalEdgeStyle;rounded=0;orthogonalLoop=1;jettySize=auto;html=1;entryX=0.543;entryY=-0.009;entryDx=0;entryDy=0;entryPerimeter=0;" edge="1" parent="10JJFGKGpy7WzZFfpZtA-91" source="10JJFGKGpy7WzZFfpZtA-92" target="10JJFGKGpy7WzZFfpZtA-93">
          <mxGeometry relative="1" as="geometry" />
        </mxCell>
        <mxCell id="10JJFGKGpy7WzZFfpZtA-95" value="บันทึกข้อมูล&lt;span style=&quot;font-size: medium; text-align: start;&quot;&gt;&lt;/span&gt;" style="rounded=1;whiteSpace=wrap;html=1;" vertex="1" parent="10JJFGKGpy7WzZFfpZtA-91">
          <mxGeometry x="6.25" y="137.5" width="77.5" height="40" as="geometry" />
        </mxCell>
        <mxCell id="10JJFGKGpy7WzZFfpZtA-96" value="" style="edgeStyle=orthogonalEdgeStyle;rounded=0;orthogonalLoop=1;jettySize=auto;html=1;" edge="1" parent="10JJFGKGpy7WzZFfpZtA-91" source="10JJFGKGpy7WzZFfpZtA-93" target="10JJFGKGpy7WzZFfpZtA-95">
          <mxGeometry relative="1" as="geometry" />
        </mxCell>
        <mxCell id="10JJFGKGpy7WzZFfpZtA-97" value="ไฟล&lt;br&gt;รูปภาพ ?" style="rhombus;whiteSpace=wrap;html=1;" vertex="1" parent="10JJFGKGpy7WzZFfpZtA-90">
          <mxGeometry x="246.22000000000003" width="65" height="65" as="geometry" />
        </mxCell>
        <mxCell id="10JJFGKGpy7WzZFfpZtA-98" style="edgeStyle=orthogonalEdgeStyle;rounded=0;orthogonalLoop=1;jettySize=auto;html=1;entryX=0.5;entryY=0;entryDx=0;entryDy=0;" edge="1" parent="10JJFGKGpy7WzZFfpZtA-90" source="10JJFGKGpy7WzZFfpZtA-100" target="10JJFGKGpy7WzZFfpZtA-92">
          <mxGeometry relative="1" as="geometry" />
        </mxCell>
        <mxCell id="10JJFGKGpy7WzZFfpZtA-99" value="ไม่" style="edgeLabel;html=1;align=center;verticalAlign=middle;resizable=0;points=[];" vertex="1" connectable="0" parent="10JJFGKGpy7WzZFfpZtA-98">
          <mxGeometry x="-0.6238" y="2" relative="1" as="geometry">
            <mxPoint as="offset" />
          </mxGeometry>
        </mxCell>
        <mxCell id="10JJFGKGpy7WzZFfpZtA-100" value="ขนาดไฟล&lt;br&gt;&amp;nbsp;&amp;gt; 50mb ?" style="rhombus;whiteSpace=wrap;html=1;" vertex="1" parent="10JJFGKGpy7WzZFfpZtA-90">
          <mxGeometry x="238.72000000000003" y="87.5" width="80" height="70" as="geometry" />
        </mxCell>
        <mxCell id="10JJFGKGpy7WzZFfpZtA-101" value="" style="edgeStyle=orthogonalEdgeStyle;rounded=0;orthogonalLoop=1;jettySize=auto;html=1;" edge="1" parent="10JJFGKGpy7WzZFfpZtA-90" source="10JJFGKGpy7WzZFfpZtA-97" target="10JJFGKGpy7WzZFfpZtA-100">
          <mxGeometry relative="1" as="geometry">
            <Array as="points">
              <mxPoint x="277.72" y="85.5" />
              <mxPoint x="278.72" y="85.5" />
            </Array>
          </mxGeometry>
        </mxCell>
        <mxCell id="10JJFGKGpy7WzZFfpZtA-102" value="ใช่" style="edgeLabel;html=1;align=center;verticalAlign=middle;resizable=0;points=[];" vertex="1" connectable="0" parent="10JJFGKGpy7WzZFfpZtA-101">
          <mxGeometry x="0.4745" y="1" relative="1" as="geometry">
            <mxPoint as="offset" />
          </mxGeometry>
        </mxCell>
        <mxCell id="10JJFGKGpy7WzZFfpZtA-103" value="rerturn Error Code 043&lt;span style=&quot;font-size: medium; text-align: start;&quot;&gt;&lt;/span&gt;" style="rounded=1;whiteSpace=wrap;html=1;" vertex="1" parent="10JJFGKGpy7WzZFfpZtA-90">
          <mxGeometry x="52.07000000000002" y="82.5" width="77.5" height="40" as="geometry" />
        </mxCell>
        <mxCell id="10JJFGKGpy7WzZFfpZtA-104" value="สร้างข้อมูล ActivityLog&lt;span style=&quot;font-size: medium; text-align: start;&quot;&gt;&lt;/span&gt;" style="rounded=1;whiteSpace=wrap;html=1;" vertex="1" parent="10JJFGKGpy7WzZFfpZtA-90">
          <mxGeometry x="143.72000000000003" y="12.5" width="77.5" height="40" as="geometry" />
        </mxCell>
        <mxCell id="10JJFGKGpy7WzZFfpZtA-105" style="edgeStyle=orthogonalEdgeStyle;rounded=0;orthogonalLoop=1;jettySize=auto;html=1;" edge="1" parent="10JJFGKGpy7WzZFfpZtA-90" source="10JJFGKGpy7WzZFfpZtA-97" target="10JJFGKGpy7WzZFfpZtA-104">
          <mxGeometry relative="1" as="geometry" />
        </mxCell>
        <mxCell id="10JJFGKGpy7WzZFfpZtA-106" value="ไม่" style="edgeLabel;html=1;align=center;verticalAlign=middle;resizable=0;points=[];" vertex="1" connectable="0" parent="10JJFGKGpy7WzZFfpZtA-105">
          <mxGeometry x="0.5378" relative="1" as="geometry">
            <mxPoint as="offset" />
          </mxGeometry>
        </mxCell>
        <mxCell id="10JJFGKGpy7WzZFfpZtA-107" value="" style="edgeStyle=orthogonalEdgeStyle;rounded=0;orthogonalLoop=1;jettySize=auto;html=1;entryX=0.5;entryY=0;entryDx=0;entryDy=0;" edge="1" parent="10JJFGKGpy7WzZFfpZtA-90" source="10JJFGKGpy7WzZFfpZtA-108" target="10JJFGKGpy7WzZFfpZtA-103">
          <mxGeometry relative="1" as="geometry" />
        </mxCell>
        <mxCell id="10JJFGKGpy7WzZFfpZtA-108" value="บันทึกข้อมูล&lt;span style=&quot;font-size: medium; text-align: start;&quot;&gt;&lt;/span&gt;" style="rounded=1;whiteSpace=wrap;html=1;" vertex="1" parent="10JJFGKGpy7WzZFfpZtA-90">
          <mxGeometry x="37.72000000000003" y="12.5" width="77.5" height="40" as="geometry" />
        </mxCell>
        <mxCell id="10JJFGKGpy7WzZFfpZtA-109" value="" style="edgeStyle=orthogonalEdgeStyle;rounded=0;orthogonalLoop=1;jettySize=auto;html=1;" edge="1" parent="10JJFGKGpy7WzZFfpZtA-90" source="10JJFGKGpy7WzZFfpZtA-104" target="10JJFGKGpy7WzZFfpZtA-108">
          <mxGeometry relative="1" as="geometry" />
        </mxCell>
        <mxCell id="10JJFGKGpy7WzZFfpZtA-110" value="rerturn Error Code 044&lt;span style=&quot;font-size: medium; text-align: start;&quot;&gt;&lt;/span&gt;" style="rounded=1;whiteSpace=wrap;html=1;" vertex="1" parent="10JJFGKGpy7WzZFfpZtA-90">
          <mxGeometry x="52.07000000000002" y="227.5" width="77.5" height="40" as="geometry" />
        </mxCell>
        <mxCell id="10JJFGKGpy7WzZFfpZtA-111" value="สร้างข้อมูล ActivityLog&lt;span style=&quot;font-size: medium; text-align: start;&quot;&gt;&lt;/span&gt;" style="rounded=1;whiteSpace=wrap;html=1;" vertex="1" parent="10JJFGKGpy7WzZFfpZtA-90">
          <mxGeometry x="153.72000000000003" y="157.5" width="77.5" height="40" as="geometry" />
        </mxCell>
        <mxCell id="10JJFGKGpy7WzZFfpZtA-112" style="edgeStyle=orthogonalEdgeStyle;rounded=0;orthogonalLoop=1;jettySize=auto;html=1;entryX=0.5;entryY=0;entryDx=0;entryDy=0;" edge="1" parent="10JJFGKGpy7WzZFfpZtA-90" source="10JJFGKGpy7WzZFfpZtA-100" target="10JJFGKGpy7WzZFfpZtA-111">
          <mxGeometry relative="1" as="geometry" />
        </mxCell>
        <mxCell id="10JJFGKGpy7WzZFfpZtA-113" value="ใช่" style="edgeLabel;html=1;align=center;verticalAlign=middle;resizable=0;points=[];" vertex="1" connectable="0" parent="10JJFGKGpy7WzZFfpZtA-112">
          <mxGeometry x="-0.6182" y="-1" relative="1" as="geometry">
            <mxPoint as="offset" />
          </mxGeometry>
        </mxCell>
        <mxCell id="10JJFGKGpy7WzZFfpZtA-114" style="edgeStyle=orthogonalEdgeStyle;rounded=0;orthogonalLoop=1;jettySize=auto;html=1;" edge="1" parent="10JJFGKGpy7WzZFfpZtA-90" source="10JJFGKGpy7WzZFfpZtA-115" target="10JJFGKGpy7WzZFfpZtA-110">
          <mxGeometry relative="1" as="geometry" />
        </mxCell>
        <mxCell id="10JJFGKGpy7WzZFfpZtA-115" value="บันทึกข้อมูล&lt;span style=&quot;font-size: medium; text-align: start;&quot;&gt;&lt;/span&gt;" style="rounded=1;whiteSpace=wrap;html=1;" vertex="1" parent="10JJFGKGpy7WzZFfpZtA-90">
          <mxGeometry x="52.07000000000002" y="157.5" width="77.5" height="40" as="geometry" />
        </mxCell>
        <mxCell id="10JJFGKGpy7WzZFfpZtA-116" style="edgeStyle=orthogonalEdgeStyle;rounded=0;orthogonalLoop=1;jettySize=auto;html=1;entryX=1;entryY=0.5;entryDx=0;entryDy=0;" edge="1" parent="10JJFGKGpy7WzZFfpZtA-90" source="10JJFGKGpy7WzZFfpZtA-111" target="10JJFGKGpy7WzZFfpZtA-115">
          <mxGeometry relative="1" as="geometry" />
        </mxCell>
        <mxCell id="10JJFGKGpy7WzZFfpZtA-117" value="2" style="ellipse;whiteSpace=wrap;html=1;aspect=fixed;" vertex="1" parent="10JJFGKGpy7WzZFfpZtA-90">
          <mxGeometry x="143.72000000000003" y="412.5" width="50" height="50" as="geometry" />
        </mxCell>
        <mxCell id="10JJFGKGpy7WzZFfpZtA-118" style="edgeStyle=orthogonalEdgeStyle;rounded=0;orthogonalLoop=1;jettySize=auto;html=1;entryX=0;entryY=0.5;entryDx=0;entryDy=0;" edge="1" parent="10JJFGKGpy7WzZFfpZtA-90" source="10JJFGKGpy7WzZFfpZtA-103" target="10JJFGKGpy7WzZFfpZtA-117">
          <mxGeometry relative="1" as="geometry">
            <Array as="points">
              <mxPoint y="102.5" />
              <mxPoint y="357.5" />
              <mxPoint x="60" y="357.5" />
              <mxPoint x="60" y="437.5" />
            </Array>
          </mxGeometry>
        </mxCell>
        <mxCell id="10JJFGKGpy7WzZFfpZtA-119" style="edgeStyle=orthogonalEdgeStyle;rounded=0;orthogonalLoop=1;jettySize=auto;html=1;entryX=1;entryY=0.5;entryDx=0;entryDy=0;" edge="1" parent="10JJFGKGpy7WzZFfpZtA-90" source="10JJFGKGpy7WzZFfpZtA-95" target="10JJFGKGpy7WzZFfpZtA-117">
          <mxGeometry relative="1" as="geometry" />
        </mxCell>
        <mxCell id="10JJFGKGpy7WzZFfpZtA-120" style="edgeStyle=orthogonalEdgeStyle;rounded=0;orthogonalLoop=1;jettySize=auto;html=1;entryX=-0.002;entryY=0.205;entryDx=0;entryDy=0;entryPerimeter=0;" edge="1" parent="10JJFGKGpy7WzZFfpZtA-90" source="10JJFGKGpy7WzZFfpZtA-110" target="10JJFGKGpy7WzZFfpZtA-117">
          <mxGeometry relative="1" as="geometry" />
        </mxCell>
        <mxCell id="10JJFGKGpy7WzZFfpZtA-121" value="สิ้นสุด" style="ellipse;whiteSpace=wrap;html=1;" vertex="1" parent="1">
          <mxGeometry x="364" y="1420" width="100" height="50" as="geometry" />
        </mxCell>
        <mxCell id="10JJFGKGpy7WzZFfpZtA-122" style="edgeStyle=orthogonalEdgeStyle;rounded=0;orthogonalLoop=1;jettySize=auto;html=1;entryX=0.5;entryY=0;entryDx=0;entryDy=0;" edge="1" parent="1" source="10JJFGKGpy7WzZFfpZtA-117" target="10JJFGKGpy7WzZFfpZtA-121">
          <mxGeometry relative="1" as="geometry">
            <Array as="points">
              <mxPoint x="230" y="1400" />
              <mxPoint x="414" y="1400" />
            </Array>
          </mxGeometry>
        </mxCell>
        <mxCell id="10JJFGKGpy7WzZFfpZtA-123" style="edgeStyle=orthogonalEdgeStyle;rounded=0;orthogonalLoop=1;jettySize=auto;html=1;" edge="1" parent="1" source="10JJFGKGpy7WzZFfpZtA-124" target="10JJFGKGpy7WzZFfpZtA-121">
          <mxGeometry relative="1" as="geometry">
            <Array as="points">
              <mxPoint x="190" y="1445" />
              <mxPoint x="190" y="1445" />
            </Array>
          </mxGeometry>
        </mxCell>
        <mxCell id="10JJFGKGpy7WzZFfpZtA-124" value="1" style="ellipse;whiteSpace=wrap;html=1;aspect=fixed;" vertex="1" parent="1">
          <mxGeometry x="75" y="1410" width="50" height="50" as="geometry" />
        </mxCell>
        <mxCell id="xUcg2-S4WwVnPB7PX1Bb-3" style="edgeStyle=orthogonalEdgeStyle;rounded=0;orthogonalLoop=1;jettySize=auto;html=1;" edge="1" parent="1" source="xUcg2-S4WwVnPB7PX1Bb-1" target="xUcg2-S4WwVnPB7PX1Bb-2">
          <mxGeometry relative="1" as="geometry" />
        </mxCell>
        <mxCell id="xUcg2-S4WwVnPB7PX1Bb-1" value="AuditCode ซ้ำไหม" style="rounded=1;whiteSpace=wrap;html=1;" vertex="1" parent="1">
          <mxGeometry x="414.97" y="606" width="77.5" height="40" as="geometry" />
        </mxCell>
        <mxCell id="xUcg2-S4WwVnPB7PX1Bb-5" value="" style="edgeStyle=orthogonalEdgeStyle;rounded=0;orthogonalLoop=1;jettySize=auto;html=1;" edge="1" parent="1" source="xUcg2-S4WwVnPB7PX1Bb-2" target="xUcg2-S4WwVnPB7PX1Bb-4">
          <mxGeometry relative="1" as="geometry" />
        </mxCell>
        <mxCell id="xUcg2-S4WwVnPB7PX1Bb-9" value="ใช่" style="edgeLabel;html=1;align=center;verticalAlign=middle;resizable=0;points=[];" vertex="1" connectable="0" parent="xUcg2-S4WwVnPB7PX1Bb-5">
          <mxGeometry x="-0.6668" y="-1" relative="1" as="geometry">
            <mxPoint as="offset" />
          </mxGeometry>
        </mxCell>
        <mxCell id="xUcg2-S4WwVnPB7PX1Bb-10" value="ไม่" style="edgeStyle=orthogonalEdgeStyle;rounded=0;orthogonalLoop=1;jettySize=auto;html=1;" edge="1" parent="1" source="xUcg2-S4WwVnPB7PX1Bb-2" target="10JJFGKGpy7WzZFfpZtA-87">
          <mxGeometry relative="1" as="geometry" />
        </mxCell>
        <mxCell id="xUcg2-S4WwVnPB7PX1Bb-2" value="ซ้ำ ?" style="rhombus;whiteSpace=wrap;html=1;" vertex="1" parent="1">
          <mxGeometry x="404" y="710" width="60" height="60" as="geometry" />
        </mxCell>
        <mxCell id="xUcg2-S4WwVnPB7PX1Bb-7" style="edgeStyle=orthogonalEdgeStyle;rounded=0;orthogonalLoop=1;jettySize=auto;html=1;" edge="1" parent="1" source="xUcg2-S4WwVnPB7PX1Bb-4" target="xUcg2-S4WwVnPB7PX1Bb-6">
          <mxGeometry relative="1" as="geometry" />
        </mxCell>
        <mxCell id="xUcg2-S4WwVnPB7PX1Bb-4" value="สร้างข้อมูล ActivityLog&lt;span style=&quot;font-size: medium; text-align: start;&quot;&gt;&lt;/span&gt;" style="rounded=1;whiteSpace=wrap;html=1;" vertex="1" parent="1">
          <mxGeometry x="286.5" y="760" width="77.5" height="40" as="geometry" />
        </mxCell>
        <mxCell id="xUcg2-S4WwVnPB7PX1Bb-8" style="edgeStyle=orthogonalEdgeStyle;rounded=0;orthogonalLoop=1;jettySize=auto;html=1;entryX=0.5;entryY=1;entryDx=0;entryDy=0;" edge="1" parent="1" source="xUcg2-S4WwVnPB7PX1Bb-6" target="10JJFGKGpy7WzZFfpZtA-19">
          <mxGeometry relative="1" as="geometry" />
        </mxCell>
        <mxCell id="xUcg2-S4WwVnPB7PX1Bb-6" value="rerturn Error Code&amp;nbsp;055&lt;span style=&quot;font-size: medium; text-align: start;&quot;&gt;&lt;/span&gt;" style="rounded=1;whiteSpace=wrap;html=1;" vertex="1" parent="1">
          <mxGeometry x="186" y="760" width="77.5" height="40" as="geometry" />
        </mxCell>
      </root>
    </mxGraphModel>
  </diagram>
  <diagram id="BHBMWt6VTuWKzSLj1siM" name="หน้า-4">
    <mxGraphModel dx="997" dy="879" grid="1" gridSize="10" guides="1" tooltips="1" connect="1" arrows="1" fold="1" page="1" pageScale="1" pageWidth="827" pageHeight="1169" math="0" shadow="0">
      <root>
        <mxCell id="0" />
        <mxCell id="1" parent="0" />
        <mxCell id="f_AykrnvLy-JYXi6f2Sj-1" value="เริ่ม" style="ellipse;whiteSpace=wrap;html=1;" vertex="1" parent="1">
          <mxGeometry x="85" y="30" width="80" height="40" as="geometry" />
        </mxCell>
        <mxCell id="f_AykrnvLy-JYXi6f2Sj-2" value="ตรวจสอบสิทธิ์การใช้งาน" style="rounded=1;whiteSpace=wrap;html=1;" vertex="1" parent="1">
          <mxGeometry x="55" y="110" width="140" height="30" as="geometry" />
        </mxCell>
        <mxCell id="f_AykrnvLy-JYXi6f2Sj-3" value="" style="edgeStyle=orthogonalEdgeStyle;rounded=0;orthogonalLoop=1;jettySize=auto;html=1;" edge="1" parent="1" source="f_AykrnvLy-JYXi6f2Sj-1" target="f_AykrnvLy-JYXi6f2Sj-2">
          <mxGeometry relative="1" as="geometry" />
        </mxCell>
        <mxCell id="f_AykrnvLy-JYXi6f2Sj-4" value="มี ?" style="rhombus;whiteSpace=wrap;html=1;" vertex="1" parent="1">
          <mxGeometry x="95" y="170" width="60" height="60" as="geometry" />
        </mxCell>
        <mxCell id="f_AykrnvLy-JYXi6f2Sj-5" value="" style="edgeStyle=orthogonalEdgeStyle;rounded=0;orthogonalLoop=1;jettySize=auto;html=1;" edge="1" parent="1" source="f_AykrnvLy-JYXi6f2Sj-2" target="f_AykrnvLy-JYXi6f2Sj-4">
          <mxGeometry relative="1" as="geometry" />
        </mxCell>
        <mxCell id="f_AykrnvLy-JYXi6f2Sj-6" style="edgeStyle=orthogonalEdgeStyle;rounded=0;orthogonalLoop=1;jettySize=auto;html=1;entryX=-0.022;entryY=0.676;entryDx=0;entryDy=0;entryPerimeter=0;" edge="1" parent="1" source="f_AykrnvLy-JYXi6f2Sj-4" target="f_AykrnvLy-JYXi6f2Sj-19">
          <mxGeometry relative="1" as="geometry">
            <Array as="points">
              <mxPoint x="125" y="706" />
            </Array>
            <mxPoint x="280" y="740" as="targetPoint" />
          </mxGeometry>
        </mxCell>
        <mxCell id="f_AykrnvLy-JYXi6f2Sj-7" value="ไม่" style="edgeLabel;html=1;align=center;verticalAlign=middle;resizable=0;points=[];" vertex="1" connectable="0" parent="f_AykrnvLy-JYXi6f2Sj-6">
          <mxGeometry x="-0.8925" y="1" relative="1" as="geometry">
            <mxPoint as="offset" />
          </mxGeometry>
        </mxCell>
        <mxCell id="f_AykrnvLy-JYXi6f2Sj-8" value="ตรวจสอบ Account &lt;br&gt;สถานะการใช้งาน" style="rounded=1;whiteSpace=wrap;html=1;" vertex="1" parent="1">
          <mxGeometry x="271.35" y="179" width="170" height="40" as="geometry" />
        </mxCell>
        <mxCell id="f_AykrnvLy-JYXi6f2Sj-9" value="" style="edgeStyle=orthogonalEdgeStyle;rounded=0;orthogonalLoop=1;jettySize=auto;html=1;" edge="1" parent="1" source="f_AykrnvLy-JYXi6f2Sj-4" target="f_AykrnvLy-JYXi6f2Sj-8">
          <mxGeometry relative="1" as="geometry">
            <Array as="points">
              <mxPoint x="235" y="200" />
              <mxPoint x="235" y="200" />
            </Array>
          </mxGeometry>
        </mxCell>
        <mxCell id="f_AykrnvLy-JYXi6f2Sj-10" value="ใช่" style="edgeLabel;html=1;align=center;verticalAlign=middle;resizable=0;points=[];" vertex="1" connectable="0" parent="f_AykrnvLy-JYXi6f2Sj-9">
          <mxGeometry x="-0.7797" y="-1" relative="1" as="geometry">
            <mxPoint as="offset" />
          </mxGeometry>
        </mxCell>
        <mxCell id="f_AykrnvLy-JYXi6f2Sj-11" value="มีใน&lt;br&gt;ระบบ &lt;br&gt;?" style="rhombus;whiteSpace=wrap;html=1;" vertex="1" parent="1">
          <mxGeometry x="349" y="258" width="75" height="70" as="geometry" />
        </mxCell>
        <mxCell id="f_AykrnvLy-JYXi6f2Sj-12" value="" style="edgeStyle=orthogonalEdgeStyle;rounded=0;orthogonalLoop=1;jettySize=auto;html=1;" edge="1" parent="1" source="f_AykrnvLy-JYXi6f2Sj-8" target="f_AykrnvLy-JYXi6f2Sj-11">
          <mxGeometry relative="1" as="geometry" />
        </mxCell>
        <mxCell id="f_AykrnvLy-JYXi6f2Sj-13" value="status&lt;br style=&quot;border-color: var(--border-color);&quot;&gt;= 1 ?" style="rhombus;whiteSpace=wrap;html=1;" vertex="1" parent="1">
          <mxGeometry x="377" y="378" width="60" height="60" as="geometry" />
        </mxCell>
        <mxCell id="f_AykrnvLy-JYXi6f2Sj-14" value="" style="edgeStyle=orthogonalEdgeStyle;rounded=0;orthogonalLoop=1;jettySize=auto;html=1;" edge="1" parent="1" source="f_AykrnvLy-JYXi6f2Sj-11" target="f_AykrnvLy-JYXi6f2Sj-13">
          <mxGeometry relative="1" as="geometry" />
        </mxCell>
        <mxCell id="f_AykrnvLy-JYXi6f2Sj-15" value="ใช่" style="edgeLabel;html=1;align=center;verticalAlign=middle;resizable=0;points=[];" vertex="1" connectable="0" parent="f_AykrnvLy-JYXi6f2Sj-14">
          <mxGeometry x="-0.3254" y="2" relative="1" as="geometry">
            <mxPoint x="-2" as="offset" />
          </mxGeometry>
        </mxCell>
        <mxCell id="f_AykrnvLy-JYXi6f2Sj-16" value="Locked&lt;br style=&quot;border-color: var(--border-color);&quot;&gt;= 1 ?&amp;nbsp;" style="rhombus;whiteSpace=wrap;html=1;" vertex="1" parent="1">
          <mxGeometry x="377.75" y="508" width="60" height="60" as="geometry" />
        </mxCell>
        <mxCell id="f_AykrnvLy-JYXi6f2Sj-17" value="" style="edgeStyle=orthogonalEdgeStyle;rounded=0;orthogonalLoop=1;jettySize=auto;html=1;" edge="1" parent="1" source="f_AykrnvLy-JYXi6f2Sj-13" target="f_AykrnvLy-JYXi6f2Sj-16">
          <mxGeometry relative="1" as="geometry" />
        </mxCell>
        <mxCell id="f_AykrnvLy-JYXi6f2Sj-18" value="ไม่" style="edgeLabel;html=1;align=center;verticalAlign=middle;resizable=0;points=[];" vertex="1" connectable="0" parent="f_AykrnvLy-JYXi6f2Sj-17">
          <mxGeometry x="-0.3745" relative="1" as="geometry">
            <mxPoint as="offset" />
          </mxGeometry>
        </mxCell>
        <mxCell id="f_AykrnvLy-JYXi6f2Sj-19" value="1" style="ellipse;whiteSpace=wrap;html=1;aspect=fixed;" vertex="1" parent="1">
          <mxGeometry x="207.5" y="672" width="50" height="50" as="geometry" />
        </mxCell>
        <mxCell id="f_AykrnvLy-JYXi6f2Sj-20" style="edgeStyle=orthogonalEdgeStyle;rounded=0;orthogonalLoop=1;jettySize=auto;html=1;exitX=0.492;exitY=0.949;exitDx=0;exitDy=0;exitPerimeter=0;" edge="1" parent="1" source="f_AykrnvLy-JYXi6f2Sj-21" target="f_AykrnvLy-JYXi6f2Sj-19">
          <mxGeometry relative="1" as="geometry">
            <Array as="points">
              <mxPoint x="176" y="386" />
              <mxPoint x="160" y="386" />
              <mxPoint x="160" y="690" />
            </Array>
          </mxGeometry>
        </mxCell>
        <mxCell id="f_AykrnvLy-JYXi6f2Sj-21" value="rerturn Error Code&amp;nbsp;001&lt;span style=&quot;font-size: medium; text-align: start;&quot;&gt;&lt;/span&gt;" style="rounded=1;whiteSpace=wrap;html=1;" vertex="1" parent="1">
          <mxGeometry x="137.5" y="338" width="77.5" height="40" as="geometry" />
        </mxCell>
        <mxCell id="f_AykrnvLy-JYXi6f2Sj-22" style="edgeStyle=orthogonalEdgeStyle;rounded=0;orthogonalLoop=1;jettySize=auto;html=1;entryX=1;entryY=1;entryDx=0;entryDy=0;" edge="1" parent="1" source="f_AykrnvLy-JYXi6f2Sj-23" target="f_AykrnvLy-JYXi6f2Sj-19">
          <mxGeometry relative="1" as="geometry">
            <Array as="points">
              <mxPoint x="312" y="715" />
              <mxPoint x="254" y="715" />
            </Array>
          </mxGeometry>
        </mxCell>
        <mxCell id="f_AykrnvLy-JYXi6f2Sj-23" value="rerturn Error Code&amp;nbsp;011&lt;span style=&quot;font-size: medium; text-align: start;&quot;&gt;&lt;/span&gt;" style="rounded=1;whiteSpace=wrap;html=1;" vertex="1" parent="1">
          <mxGeometry x="273.5" y="656" width="77.5" height="40" as="geometry" />
        </mxCell>
        <mxCell id="f_AykrnvLy-JYXi6f2Sj-24" value="" style="edgeStyle=orthogonalEdgeStyle;rounded=0;orthogonalLoop=1;jettySize=auto;html=1;entryX=0.467;entryY=0.027;entryDx=0;entryDy=0;entryPerimeter=0;" edge="1" parent="1" source="f_AykrnvLy-JYXi6f2Sj-68" target="f_AykrnvLy-JYXi6f2Sj-70">
          <mxGeometry relative="1" as="geometry" />
        </mxCell>
        <mxCell id="f_AykrnvLy-JYXi6f2Sj-25" style="edgeStyle=orthogonalEdgeStyle;rounded=0;orthogonalLoop=1;jettySize=auto;html=1;" edge="1" parent="1" source="f_AykrnvLy-JYXi6f2Sj-26" target="f_AykrnvLy-JYXi6f2Sj-19">
          <mxGeometry relative="1" as="geometry">
            <mxPoint x="200" y="640" as="targetPoint" />
            <Array as="points">
              <mxPoint x="219" y="670" />
              <mxPoint x="219" y="670" />
            </Array>
          </mxGeometry>
        </mxCell>
        <mxCell id="f_AykrnvLy-JYXi6f2Sj-26" value="rerturn Error Code&amp;nbsp;004&lt;span style=&quot;font-size: medium; text-align: start;&quot;&gt;&lt;/span&gt;" style="rounded=1;whiteSpace=wrap;html=1;" vertex="1" parent="1">
          <mxGeometry x="180" y="478" width="77.5" height="40" as="geometry" />
        </mxCell>
        <mxCell id="f_AykrnvLy-JYXi6f2Sj-27" value="" style="edgeStyle=orthogonalEdgeStyle;rounded=0;orthogonalLoop=1;jettySize=auto;html=1;" edge="1" parent="1" source="f_AykrnvLy-JYXi6f2Sj-13" target="f_AykrnvLy-JYXi6f2Sj-63">
          <mxGeometry relative="1" as="geometry">
            <mxPoint x="310" y="390" as="targetPoint" />
          </mxGeometry>
        </mxCell>
        <mxCell id="f_AykrnvLy-JYXi6f2Sj-28" value="ใช่" style="edgeLabel;html=1;align=center;verticalAlign=middle;resizable=0;points=[];" vertex="1" connectable="0" parent="f_AykrnvLy-JYXi6f2Sj-27">
          <mxGeometry x="-0.4608" y="2" relative="1" as="geometry">
            <mxPoint as="offset" />
          </mxGeometry>
        </mxCell>
        <mxCell id="f_AykrnvLy-JYXi6f2Sj-29" value="" style="edgeStyle=orthogonalEdgeStyle;rounded=0;orthogonalLoop=1;jettySize=auto;html=1;entryX=0.1;entryY=0.5;entryDx=0;entryDy=0;entryPerimeter=0;" edge="1" parent="1" source="f_AykrnvLy-JYXi6f2Sj-16" target="f_AykrnvLy-JYXi6f2Sj-32">
          <mxGeometry relative="1" as="geometry">
            <mxPoint x="429" y="538" as="targetPoint" />
            <Array as="points">
              <mxPoint x="470" y="538" />
              <mxPoint x="470" y="364" />
            </Array>
          </mxGeometry>
        </mxCell>
        <mxCell id="f_AykrnvLy-JYXi6f2Sj-30" value="" style="edgeStyle=orthogonalEdgeStyle;rounded=0;orthogonalLoop=1;jettySize=auto;html=1;" edge="1" parent="1" source="f_AykrnvLy-JYXi6f2Sj-32" target="f_AykrnvLy-JYXi6f2Sj-33">
          <mxGeometry relative="1" as="geometry">
            <mxPoint x="545" y="538" as="targetPoint" />
            <Array as="points">
              <mxPoint x="600" y="364" />
            </Array>
          </mxGeometry>
        </mxCell>
        <mxCell id="f_AykrnvLy-JYXi6f2Sj-31" value="ไม่" style="edgeLabel;html=1;align=center;verticalAlign=middle;resizable=0;points=[];" vertex="1" connectable="0" parent="f_AykrnvLy-JYXi6f2Sj-30">
          <mxGeometry x="-0.3115" y="3" relative="1" as="geometry">
            <mxPoint as="offset" />
          </mxGeometry>
        </mxCell>
        <mxCell id="f_AykrnvLy-JYXi6f2Sj-32" value="Super&lt;br&gt;Admin ?" style="rhombus;whiteSpace=wrap;html=1;" vertex="1" parent="1">
          <mxGeometry x="486.25" y="328" width="66" height="72" as="geometry" />
        </mxCell>
        <mxCell id="f_AykrnvLy-JYXi6f2Sj-33" value="ตรวจสอบสิทธิ์การใช้งาน Company นี้ไหม&lt;span style=&quot;font-size: medium; text-align: start;&quot;&gt;&lt;/span&gt;" style="rounded=1;whiteSpace=wrap;html=1;" vertex="1" parent="1">
          <mxGeometry x="545" y="518" width="110" height="42" as="geometry" />
        </mxCell>
        <mxCell id="f_AykrnvLy-JYXi6f2Sj-34" value="มี ?" style="rhombus;whiteSpace=wrap;html=1;" vertex="1" parent="1">
          <mxGeometry x="567" y="600" width="66" height="72" as="geometry" />
        </mxCell>
        <mxCell id="f_AykrnvLy-JYXi6f2Sj-35" value="" style="edgeStyle=orthogonalEdgeStyle;rounded=0;orthogonalLoop=1;jettySize=auto;html=1;" edge="1" parent="1" source="f_AykrnvLy-JYXi6f2Sj-33" target="f_AykrnvLy-JYXi6f2Sj-34">
          <mxGeometry relative="1" as="geometry" />
        </mxCell>
        <mxCell id="f_AykrnvLy-JYXi6f2Sj-36" value="Company &lt;br&gt;มีในระบบ&lt;br&gt;ไหม ?" style="rhombus;whiteSpace=wrap;html=1;" vertex="1" parent="1">
          <mxGeometry x="555" y="730" width="90" height="80" as="geometry" />
        </mxCell>
        <mxCell id="f_AykrnvLy-JYXi6f2Sj-37" value="" style="edgeStyle=orthogonalEdgeStyle;rounded=0;orthogonalLoop=1;jettySize=auto;html=1;" edge="1" parent="1" source="f_AykrnvLy-JYXi6f2Sj-34" target="f_AykrnvLy-JYXi6f2Sj-36">
          <mxGeometry relative="1" as="geometry" />
        </mxCell>
        <mxCell id="f_AykrnvLy-JYXi6f2Sj-38" value="ใช่" style="edgeLabel;html=1;align=center;verticalAlign=middle;resizable=0;points=[];" vertex="1" connectable="0" parent="f_AykrnvLy-JYXi6f2Sj-37">
          <mxGeometry x="-0.2859" relative="1" as="geometry">
            <mxPoint as="offset" />
          </mxGeometry>
        </mxCell>
        <mxCell id="f_AykrnvLy-JYXi6f2Sj-39" style="edgeStyle=orthogonalEdgeStyle;rounded=0;orthogonalLoop=1;jettySize=auto;html=1;" edge="1" parent="1">
          <mxGeometry relative="1" as="geometry">
            <mxPoint x="747.5" y="636" as="sourcePoint" />
            <mxPoint x="770" y="636" as="targetPoint" />
          </mxGeometry>
        </mxCell>
        <mxCell id="f_AykrnvLy-JYXi6f2Sj-40" style="edgeStyle=orthogonalEdgeStyle;rounded=0;orthogonalLoop=1;jettySize=auto;html=1;" edge="1" parent="1" source="f_AykrnvLy-JYXi6f2Sj-34">
          <mxGeometry relative="1" as="geometry">
            <mxPoint x="670" y="636" as="targetPoint" />
          </mxGeometry>
        </mxCell>
        <mxCell id="f_AykrnvLy-JYXi6f2Sj-41" value="ไม่" style="edgeLabel;html=1;align=center;verticalAlign=middle;resizable=0;points=[];" vertex="1" connectable="0" parent="f_AykrnvLy-JYXi6f2Sj-40">
          <mxGeometry x="-0.0865" y="2" relative="1" as="geometry">
            <mxPoint as="offset" />
          </mxGeometry>
        </mxCell>
        <mxCell id="f_AykrnvLy-JYXi6f2Sj-42" style="edgeStyle=orthogonalEdgeStyle;rounded=0;orthogonalLoop=1;jettySize=auto;html=1;entryX=1;entryY=0.5;entryDx=0;entryDy=0;" edge="1" parent="1" source="f_AykrnvLy-JYXi6f2Sj-44" target="f_AykrnvLy-JYXi6f2Sj-125">
          <mxGeometry relative="1" as="geometry" />
        </mxCell>
        <mxCell id="f_AykrnvLy-JYXi6f2Sj-43" value="ใช่" style="edgeLabel;html=1;align=center;verticalAlign=middle;resizable=0;points=[];" vertex="1" connectable="0" parent="f_AykrnvLy-JYXi6f2Sj-42">
          <mxGeometry x="-0.0994" relative="1" as="geometry">
            <mxPoint as="offset" />
          </mxGeometry>
        </mxCell>
        <mxCell id="f_AykrnvLy-JYXi6f2Sj-44" value="Company &lt;br&gt;Active ?" style="rhombus;whiteSpace=wrap;html=1;" vertex="1" parent="1">
          <mxGeometry x="555" y="850" width="90" height="80" as="geometry" />
        </mxCell>
        <mxCell id="f_AykrnvLy-JYXi6f2Sj-45" value="ใช่" style="edgeStyle=orthogonalEdgeStyle;rounded=0;orthogonalLoop=1;jettySize=auto;html=1;" edge="1" parent="1" source="f_AykrnvLy-JYXi6f2Sj-36" target="f_AykrnvLy-JYXi6f2Sj-44">
          <mxGeometry relative="1" as="geometry" />
        </mxCell>
        <mxCell id="f_AykrnvLy-JYXi6f2Sj-46" value="" style="edgeStyle=orthogonalEdgeStyle;rounded=0;orthogonalLoop=1;jettySize=auto;html=1;" edge="1" parent="1" source="f_AykrnvLy-JYXi6f2Sj-36">
          <mxGeometry relative="1" as="geometry">
            <mxPoint x="695" y="770" as="targetPoint" />
          </mxGeometry>
        </mxCell>
        <mxCell id="f_AykrnvLy-JYXi6f2Sj-47" value="ไม่" style="edgeLabel;html=1;align=center;verticalAlign=middle;resizable=0;points=[];" vertex="1" connectable="0" parent="f_AykrnvLy-JYXi6f2Sj-46">
          <mxGeometry x="-0.1127" relative="1" as="geometry">
            <mxPoint as="offset" />
          </mxGeometry>
        </mxCell>
        <mxCell id="f_AykrnvLy-JYXi6f2Sj-48" value="" style="edgeStyle=orthogonalEdgeStyle;rounded=0;orthogonalLoop=1;jettySize=auto;html=1;" edge="1" parent="1" source="f_AykrnvLy-JYXi6f2Sj-44" target="f_AykrnvLy-JYXi6f2Sj-83">
          <mxGeometry relative="1" as="geometry">
            <mxPoint x="695" y="890" as="targetPoint" />
          </mxGeometry>
        </mxCell>
        <mxCell id="f_AykrnvLy-JYXi6f2Sj-49" value="ไม่" style="edgeLabel;html=1;align=center;verticalAlign=middle;resizable=0;points=[];" vertex="1" connectable="0" parent="f_AykrnvLy-JYXi6f2Sj-48">
          <mxGeometry x="-0.2152" y="2" relative="1" as="geometry">
            <mxPoint as="offset" />
          </mxGeometry>
        </mxCell>
        <mxCell id="f_AykrnvLy-JYXi6f2Sj-50" style="edgeStyle=orthogonalEdgeStyle;rounded=0;orthogonalLoop=1;jettySize=auto;html=1;entryX=0.5;entryY=0;entryDx=0;entryDy=0;" edge="1" parent="1" source="f_AykrnvLy-JYXi6f2Sj-32" target="f_AykrnvLy-JYXi6f2Sj-125">
          <mxGeometry relative="1" as="geometry">
            <mxPoint x="462" y="870" as="targetPoint" />
            <Array as="points">
              <mxPoint x="519" y="640" />
              <mxPoint x="432" y="640" />
            </Array>
          </mxGeometry>
        </mxCell>
        <mxCell id="f_AykrnvLy-JYXi6f2Sj-51" value="ใช่" style="edgeLabel;html=1;align=center;verticalAlign=middle;resizable=0;points=[];" vertex="1" connectable="0" parent="f_AykrnvLy-JYXi6f2Sj-50">
          <mxGeometry x="-0.3215" y="2" relative="1" as="geometry">
            <mxPoint as="offset" />
          </mxGeometry>
        </mxCell>
        <mxCell id="f_AykrnvLy-JYXi6f2Sj-52" style="edgeStyle=orthogonalEdgeStyle;rounded=0;orthogonalLoop=1;jettySize=auto;html=1;entryX=1;entryY=0.5;entryDx=0;entryDy=0;" edge="1" parent="1" source="f_AykrnvLy-JYXi6f2Sj-53" target="f_AykrnvLy-JYXi6f2Sj-121">
          <mxGeometry relative="1" as="geometry" />
        </mxCell>
        <mxCell id="f_AykrnvLy-JYXi6f2Sj-53" value="2" style="ellipse;whiteSpace=wrap;html=1;aspect=fixed;" vertex="1" parent="1">
          <mxGeometry x="708.75" y="980" width="50" height="50" as="geometry" />
        </mxCell>
        <mxCell id="f_AykrnvLy-JYXi6f2Sj-54" style="edgeStyle=orthogonalEdgeStyle;rounded=0;orthogonalLoop=1;jettySize=auto;html=1;entryX=1;entryY=0.5;entryDx=0;entryDy=0;" edge="1" parent="1" source="f_AykrnvLy-JYXi6f2Sj-73" target="f_AykrnvLy-JYXi6f2Sj-53">
          <mxGeometry relative="1" as="geometry">
            <mxPoint x="795" y="790" as="targetPoint" />
            <Array as="points">
              <mxPoint x="920" y="702" />
              <mxPoint x="920" y="1005" />
            </Array>
            <mxPoint x="810.0285714285715" y="656" as="sourcePoint" />
          </mxGeometry>
        </mxCell>
        <mxCell id="f_AykrnvLy-JYXi6f2Sj-55" style="edgeStyle=orthogonalEdgeStyle;rounded=0;orthogonalLoop=1;jettySize=auto;html=1;entryX=0;entryY=0.5;entryDx=0;entryDy=0;" edge="1" parent="1" target="f_AykrnvLy-JYXi6f2Sj-79">
          <mxGeometry relative="1" as="geometry">
            <Array as="points">
              <mxPoint x="790" y="770" />
              <mxPoint x="790" y="770" />
            </Array>
            <mxPoint x="772.5" y="770.037037037037" as="sourcePoint" />
          </mxGeometry>
        </mxCell>
        <mxCell id="f_AykrnvLy-JYXi6f2Sj-56" value="" style="edgeStyle=orthogonalEdgeStyle;rounded=0;orthogonalLoop=1;jettySize=auto;html=1;entryX=0.5;entryY=0;entryDx=0;entryDy=0;" edge="1" parent="1" source="f_AykrnvLy-JYXi6f2Sj-57" target="f_AykrnvLy-JYXi6f2Sj-21">
          <mxGeometry relative="1" as="geometry" />
        </mxCell>
        <mxCell id="f_AykrnvLy-JYXi6f2Sj-57" value="บันทึกข้อมูล&lt;span style=&quot;font-size: medium; text-align: start;&quot;&gt;&lt;/span&gt;" style="rounded=1;whiteSpace=wrap;html=1;" vertex="1" parent="1">
          <mxGeometry x="137.5" y="273" width="77.5" height="40" as="geometry" />
        </mxCell>
        <mxCell id="f_AykrnvLy-JYXi6f2Sj-58" value="" style="edgeStyle=orthogonalEdgeStyle;rounded=0;orthogonalLoop=1;jettySize=auto;html=1;" edge="1" parent="1" source="f_AykrnvLy-JYXi6f2Sj-11" target="f_AykrnvLy-JYXi6f2Sj-61">
          <mxGeometry relative="1" as="geometry">
            <mxPoint x="169" y="348" as="targetPoint" />
            <mxPoint x="319" y="293" as="sourcePoint" />
          </mxGeometry>
        </mxCell>
        <mxCell id="f_AykrnvLy-JYXi6f2Sj-59" value="ไม่" style="edgeLabel;html=1;align=center;verticalAlign=middle;resizable=0;points=[];" vertex="1" connectable="0" parent="f_AykrnvLy-JYXi6f2Sj-58">
          <mxGeometry x="-0.6573" y="2" relative="1" as="geometry">
            <mxPoint as="offset" />
          </mxGeometry>
        </mxCell>
        <mxCell id="f_AykrnvLy-JYXi6f2Sj-60" style="edgeStyle=orthogonalEdgeStyle;rounded=0;orthogonalLoop=1;jettySize=auto;html=1;" edge="1" parent="1" source="f_AykrnvLy-JYXi6f2Sj-61" target="f_AykrnvLy-JYXi6f2Sj-57">
          <mxGeometry relative="1" as="geometry" />
        </mxCell>
        <mxCell id="f_AykrnvLy-JYXi6f2Sj-61" value="สร้างข้อมูล ActivityLog&lt;span style=&quot;font-size: medium; text-align: start;&quot;&gt;&lt;/span&gt;" style="rounded=1;whiteSpace=wrap;html=1;" vertex="1" parent="1">
          <mxGeometry x="240" y="273" width="77.5" height="40" as="geometry" />
        </mxCell>
        <mxCell id="f_AykrnvLy-JYXi6f2Sj-62" style="edgeStyle=orthogonalEdgeStyle;rounded=0;orthogonalLoop=1;jettySize=auto;html=1;" edge="1" parent="1" source="f_AykrnvLy-JYXi6f2Sj-63" target="f_AykrnvLy-JYXi6f2Sj-65">
          <mxGeometry relative="1" as="geometry" />
        </mxCell>
        <mxCell id="f_AykrnvLy-JYXi6f2Sj-63" value="สร้างข้อมูล ActivityLog&lt;span style=&quot;font-size: medium; text-align: start;&quot;&gt;&lt;/span&gt;" style="rounded=1;whiteSpace=wrap;html=1;" vertex="1" parent="1">
          <mxGeometry x="271.35" y="388" width="77.5" height="40" as="geometry" />
        </mxCell>
        <mxCell id="f_AykrnvLy-JYXi6f2Sj-64" style="edgeStyle=orthogonalEdgeStyle;rounded=0;orthogonalLoop=1;jettySize=auto;html=1;entryX=0.5;entryY=0;entryDx=0;entryDy=0;" edge="1" parent="1" source="f_AykrnvLy-JYXi6f2Sj-65" target="f_AykrnvLy-JYXi6f2Sj-26">
          <mxGeometry relative="1" as="geometry">
            <Array as="points">
              <mxPoint x="204" y="448" />
            </Array>
          </mxGeometry>
        </mxCell>
        <mxCell id="f_AykrnvLy-JYXi6f2Sj-65" value="บันทึกข้อมูล&lt;span style=&quot;font-size: medium; text-align: start;&quot;&gt;&lt;/span&gt;" style="rounded=1;whiteSpace=wrap;html=1;" vertex="1" parent="1">
          <mxGeometry x="180" y="388" width="77.5" height="40" as="geometry" />
        </mxCell>
        <mxCell id="f_AykrnvLy-JYXi6f2Sj-66" value="" style="edgeStyle=orthogonalEdgeStyle;rounded=0;orthogonalLoop=1;jettySize=auto;html=1;" edge="1" parent="1" source="f_AykrnvLy-JYXi6f2Sj-16" target="f_AykrnvLy-JYXi6f2Sj-68">
          <mxGeometry relative="1" as="geometry">
            <mxPoint x="378" y="538" as="sourcePoint" />
            <mxPoint x="338" y="595" as="targetPoint" />
          </mxGeometry>
        </mxCell>
        <mxCell id="f_AykrnvLy-JYXi6f2Sj-67" value="ใช่" style="edgeLabel;html=1;align=center;verticalAlign=middle;resizable=0;points=[];" vertex="1" connectable="0" parent="f_AykrnvLy-JYXi6f2Sj-66">
          <mxGeometry x="-0.4608" y="1" relative="1" as="geometry">
            <mxPoint as="offset" />
          </mxGeometry>
        </mxCell>
        <mxCell id="f_AykrnvLy-JYXi6f2Sj-68" value="สร้างข้อมูล ActivityLog&lt;span style=&quot;font-size: medium; text-align: start;&quot;&gt;&lt;/span&gt;" style="rounded=1;whiteSpace=wrap;html=1;" vertex="1" parent="1">
          <mxGeometry x="271.35" y="518" width="77.5" height="40" as="geometry" />
        </mxCell>
        <mxCell id="f_AykrnvLy-JYXi6f2Sj-69" value="" style="edgeStyle=orthogonalEdgeStyle;rounded=0;orthogonalLoop=1;jettySize=auto;html=1;" edge="1" parent="1" source="f_AykrnvLy-JYXi6f2Sj-70" target="f_AykrnvLy-JYXi6f2Sj-23">
          <mxGeometry relative="1" as="geometry" />
        </mxCell>
        <mxCell id="f_AykrnvLy-JYXi6f2Sj-70" value="บันทึกข้อมูล&lt;span style=&quot;font-size: medium; text-align: start;&quot;&gt;&lt;/span&gt;" style="rounded=1;whiteSpace=wrap;html=1;" vertex="1" parent="1">
          <mxGeometry x="273.5" y="590" width="77.5" height="40" as="geometry" />
        </mxCell>
        <mxCell id="f_AykrnvLy-JYXi6f2Sj-71" style="edgeStyle=orthogonalEdgeStyle;rounded=0;orthogonalLoop=1;jettySize=auto;html=1;entryX=0.5;entryY=0;entryDx=0;entryDy=0;" edge="1" parent="1" source="f_AykrnvLy-JYXi6f2Sj-72" target="f_AykrnvLy-JYXi6f2Sj-73">
          <mxGeometry relative="1" as="geometry" />
        </mxCell>
        <mxCell id="f_AykrnvLy-JYXi6f2Sj-72" value="บันทึกข้อมูล" style="rounded=1;whiteSpace=wrap;html=1;" vertex="1" parent="1">
          <mxGeometry x="770" y="616" width="77.5" height="40" as="geometry" />
        </mxCell>
        <mxCell id="f_AykrnvLy-JYXi6f2Sj-73" value="rerturn Error Code&amp;nbsp;002&lt;span style=&quot;font-size: medium; text-align: start;&quot;&gt;&lt;/span&gt;" style="rounded=1;whiteSpace=wrap;html=1;" vertex="1" parent="1">
          <mxGeometry x="770" y="682" width="77.5" height="40" as="geometry" />
        </mxCell>
        <mxCell id="f_AykrnvLy-JYXi6f2Sj-74" value="สร้างข้อมูล ActivityLog&lt;span style=&quot;font-size: medium; text-align: start;&quot;&gt;&lt;/span&gt;" style="rounded=1;whiteSpace=wrap;html=1;" vertex="1" parent="1">
          <mxGeometry x="670" y="616" width="77.5" height="40" as="geometry" />
        </mxCell>
        <mxCell id="f_AykrnvLy-JYXi6f2Sj-75" style="edgeStyle=orthogonalEdgeStyle;rounded=0;orthogonalLoop=1;jettySize=auto;html=1;" edge="1" parent="1" source="f_AykrnvLy-JYXi6f2Sj-76">
          <mxGeometry relative="1" as="geometry">
            <mxPoint x="920" y="830" as="targetPoint" />
          </mxGeometry>
        </mxCell>
        <mxCell id="f_AykrnvLy-JYXi6f2Sj-76" value="rerturn Error Code&amp;nbsp;007&lt;span style=&quot;font-size: medium; text-align: start;&quot;&gt;&lt;/span&gt;" style="rounded=1;whiteSpace=wrap;html=1;" vertex="1" parent="1">
          <mxGeometry x="800" y="810" width="77.5" height="40" as="geometry" />
        </mxCell>
        <mxCell id="f_AykrnvLy-JYXi6f2Sj-77" value="สร้างข้อมูล ActivityLog&lt;span style=&quot;font-size: medium; text-align: start;&quot;&gt;&lt;/span&gt;" style="rounded=1;whiteSpace=wrap;html=1;" vertex="1" parent="1">
          <mxGeometry x="695" y="750" width="77.5" height="40" as="geometry" />
        </mxCell>
        <mxCell id="f_AykrnvLy-JYXi6f2Sj-78" style="edgeStyle=orthogonalEdgeStyle;rounded=0;orthogonalLoop=1;jettySize=auto;html=1;" edge="1" parent="1" source="f_AykrnvLy-JYXi6f2Sj-79" target="f_AykrnvLy-JYXi6f2Sj-76">
          <mxGeometry relative="1" as="geometry" />
        </mxCell>
        <mxCell id="f_AykrnvLy-JYXi6f2Sj-79" value="บันทึกข้อมูล" style="rounded=1;whiteSpace=wrap;html=1;" vertex="1" parent="1">
          <mxGeometry x="800" y="750" width="77.5" height="40" as="geometry" />
        </mxCell>
        <mxCell id="f_AykrnvLy-JYXi6f2Sj-80" style="edgeStyle=orthogonalEdgeStyle;rounded=0;orthogonalLoop=1;jettySize=auto;html=1;" edge="1" parent="1" source="f_AykrnvLy-JYXi6f2Sj-81" target="f_AykrnvLy-JYXi6f2Sj-53">
          <mxGeometry relative="1" as="geometry">
            <mxPoint x="839" y="1000" as="targetPoint" />
          </mxGeometry>
        </mxCell>
        <mxCell id="f_AykrnvLy-JYXi6f2Sj-81" value="rerturn Error Code&amp;nbsp;051&lt;span style=&quot;font-size: medium; text-align: start;&quot;&gt;&lt;/span&gt;" style="rounded=1;whiteSpace=wrap;html=1;" vertex="1" parent="1">
          <mxGeometry x="800" y="930" width="77.5" height="40" as="geometry" />
        </mxCell>
        <mxCell id="f_AykrnvLy-JYXi6f2Sj-82" style="edgeStyle=orthogonalEdgeStyle;rounded=0;orthogonalLoop=1;jettySize=auto;html=1;entryX=-0.036;entryY=0.462;entryDx=0;entryDy=0;entryPerimeter=0;" edge="1" parent="1" source="f_AykrnvLy-JYXi6f2Sj-83" target="f_AykrnvLy-JYXi6f2Sj-85">
          <mxGeometry relative="1" as="geometry" />
        </mxCell>
        <mxCell id="f_AykrnvLy-JYXi6f2Sj-83" value="สร้างข้อมูล ActivityLog&lt;span style=&quot;font-size: medium; text-align: start;&quot;&gt;&lt;/span&gt;" style="rounded=1;whiteSpace=wrap;html=1;" vertex="1" parent="1">
          <mxGeometry x="692.5" y="870" width="77.5" height="40" as="geometry" />
        </mxCell>
        <mxCell id="f_AykrnvLy-JYXi6f2Sj-84" style="edgeStyle=orthogonalEdgeStyle;rounded=0;orthogonalLoop=1;jettySize=auto;html=1;" edge="1" parent="1" source="f_AykrnvLy-JYXi6f2Sj-85" target="f_AykrnvLy-JYXi6f2Sj-81">
          <mxGeometry relative="1" as="geometry" />
        </mxCell>
        <mxCell id="f_AykrnvLy-JYXi6f2Sj-85" value="บันทึกข้อมูล" style="rounded=1;whiteSpace=wrap;html=1;" vertex="1" parent="1">
          <mxGeometry x="800" y="870" width="77.5" height="40" as="geometry" />
        </mxCell>
        <mxCell id="f_AykrnvLy-JYXi6f2Sj-125" value="ดึงข้อมูลนักลงทุนสัมพันธ์" style="rounded=1;whiteSpace=wrap;html=1;" vertex="1" parent="1">
          <mxGeometry x="372" y="720" width="120" height="40" as="geometry" />
        </mxCell>
        <mxCell id="f_AykrnvLy-JYXi6f2Sj-126" value="" style="edgeStyle=orthogonalEdgeStyle;rounded=0;orthogonalLoop=1;jettySize=auto;html=1;entryX=0.992;entryY=0.594;entryDx=0;entryDy=0;entryPerimeter=0;" edge="1" parent="1" source="f_AykrnvLy-JYXi6f2Sj-128" target="PP1_beBMulsJ-E4AbIWN-2">
          <mxGeometry relative="1" as="geometry">
            <mxPoint x="467.7931034482758" y="860" as="targetPoint" />
            <Array as="points">
              <mxPoint x="485" y="810" />
              <mxPoint x="485" y="874" />
            </Array>
          </mxGeometry>
        </mxCell>
        <mxCell id="f_AykrnvLy-JYXi6f2Sj-127" value="ใช่" style="edgeLabel;html=1;align=center;verticalAlign=middle;resizable=0;points=[];" vertex="1" connectable="0" parent="f_AykrnvLy-JYXi6f2Sj-126">
          <mxGeometry x="-0.3989" y="-1" relative="1" as="geometry">
            <mxPoint x="2" y="25" as="offset" />
          </mxGeometry>
        </mxCell>
        <mxCell id="f_AykrnvLy-JYXi6f2Sj-128" value="มี?" style="rhombus;whiteSpace=wrap;html=1;" vertex="1" parent="1">
          <mxGeometry x="407.75" y="790" width="48.5" height="40" as="geometry" />
        </mxCell>
        <mxCell id="f_AykrnvLy-JYXi6f2Sj-129" value="" style="edgeStyle=orthogonalEdgeStyle;rounded=0;orthogonalLoop=1;jettySize=auto;html=1;" edge="1" parent="1" source="f_AykrnvLy-JYXi6f2Sj-125" target="f_AykrnvLy-JYXi6f2Sj-128">
          <mxGeometry relative="1" as="geometry" />
        </mxCell>
        <mxCell id="f_AykrnvLy-JYXi6f2Sj-130" style="edgeStyle=orthogonalEdgeStyle;rounded=0;orthogonalLoop=1;jettySize=auto;html=1;" edge="1" parent="1" source="f_AykrnvLy-JYXi6f2Sj-131" target="f_AykrnvLy-JYXi6f2Sj-19">
          <mxGeometry relative="1" as="geometry" />
        </mxCell>
        <mxCell id="f_AykrnvLy-JYXi6f2Sj-131" value="return Error code 050" style="rounded=1;whiteSpace=wrap;html=1;" vertex="1" parent="1">
          <mxGeometry x="190" y="750" width="85" height="30" as="geometry" />
        </mxCell>
        <mxCell id="f_AykrnvLy-JYXi6f2Sj-132" style="edgeStyle=orthogonalEdgeStyle;rounded=0;orthogonalLoop=1;jettySize=auto;html=1;entryX=1;entryY=0.5;entryDx=0;entryDy=0;" edge="1" parent="1" source="FFxhzRxJocXwWcnJcmNc-5" target="FFxhzRxJocXwWcnJcmNc-3">
          <mxGeometry relative="1" as="geometry" />
        </mxCell>
        <mxCell id="uDKnnfSJuUjkHK5vjNdq-1" value="" style="group" vertex="1" connectable="0" parent="1">
          <mxGeometry x="55" y="1000" width="422.34000000000003" height="620" as="geometry" />
        </mxCell>
        <mxCell id="f_AykrnvLy-JYXi6f2Sj-87" value="Picture?" style="rhombus;whiteSpace=wrap;html=1;" vertex="1" parent="uDKnnfSJuUjkHK5vjNdq-1">
          <mxGeometry x="362.34000000000003" width="60" height="60" as="geometry" />
        </mxCell>
        <mxCell id="f_AykrnvLy-JYXi6f2Sj-88" style="edgeStyle=orthogonalEdgeStyle;rounded=0;orthogonalLoop=1;jettySize=auto;html=1;entryX=0.5;entryY=0;entryDx=0;entryDy=0;" edge="1" parent="uDKnnfSJuUjkHK5vjNdq-1" source="f_AykrnvLy-JYXi6f2Sj-87" target="f_AykrnvLy-JYXi6f2Sj-97">
          <mxGeometry relative="1" as="geometry">
            <mxPoint x="392.34000000000003" y="95" as="targetPoint" />
          </mxGeometry>
        </mxCell>
        <mxCell id="f_AykrnvLy-JYXi6f2Sj-89" value="ใช่" style="edgeLabel;html=1;align=center;verticalAlign=middle;resizable=0;points=[];" vertex="1" connectable="0" parent="f_AykrnvLy-JYXi6f2Sj-88">
          <mxGeometry x="-0.1526" y="1" relative="1" as="geometry">
            <mxPoint as="offset" />
          </mxGeometry>
        </mxCell>
        <mxCell id="f_AykrnvLy-JYXi6f2Sj-90" value="" style="group" vertex="1" connectable="0" parent="uDKnnfSJuUjkHK5vjNdq-1">
          <mxGeometry y="60" width="369.97" height="462.5" as="geometry" />
        </mxCell>
        <mxCell id="f_AykrnvLy-JYXi6f2Sj-91" value="" style="group" vertex="1" connectable="0" parent="f_AykrnvLy-JYXi6f2Sj-90">
          <mxGeometry x="273.72" y="217.5" width="96.25" height="177.5" as="geometry" />
        </mxCell>
        <mxCell id="f_AykrnvLy-JYXi6f2Sj-92" value="แก้ไขข้อมูลนักลงทุนสัมพันธ์&lt;span style=&quot;font-size: medium; text-align: start;&quot;&gt;&lt;/span&gt;" style="rounded=1;whiteSpace=wrap;html=1;" vertex="1" parent="f_AykrnvLy-JYXi6f2Sj-91">
          <mxGeometry x="-5" width="106.25" height="42.5" as="geometry" />
        </mxCell>
        <mxCell id="f_AykrnvLy-JYXi6f2Sj-93" value="สร้างข้อมูล ActivityLog&lt;span style=&quot;font-size: medium; text-align: start;&quot;&gt;&lt;/span&gt;" style="rounded=1;whiteSpace=wrap;html=1;" vertex="1" parent="f_AykrnvLy-JYXi6f2Sj-91">
          <mxGeometry x="6.25" y="67.5" width="77.5" height="40" as="geometry" />
        </mxCell>
        <mxCell id="f_AykrnvLy-JYXi6f2Sj-94" value="" style="edgeStyle=orthogonalEdgeStyle;rounded=0;orthogonalLoop=1;jettySize=auto;html=1;entryX=0.543;entryY=-0.009;entryDx=0;entryDy=0;entryPerimeter=0;" edge="1" parent="f_AykrnvLy-JYXi6f2Sj-91" source="f_AykrnvLy-JYXi6f2Sj-92" target="f_AykrnvLy-JYXi6f2Sj-93">
          <mxGeometry relative="1" as="geometry" />
        </mxCell>
        <mxCell id="f_AykrnvLy-JYXi6f2Sj-95" value="บันทึกข้อมูล&lt;span style=&quot;font-size: medium; text-align: start;&quot;&gt;&lt;/span&gt;" style="rounded=1;whiteSpace=wrap;html=1;" vertex="1" parent="f_AykrnvLy-JYXi6f2Sj-91">
          <mxGeometry x="6.25" y="137.5" width="77.5" height="40" as="geometry" />
        </mxCell>
        <mxCell id="f_AykrnvLy-JYXi6f2Sj-96" value="" style="edgeStyle=orthogonalEdgeStyle;rounded=0;orthogonalLoop=1;jettySize=auto;html=1;" edge="1" parent="f_AykrnvLy-JYXi6f2Sj-91" source="f_AykrnvLy-JYXi6f2Sj-93" target="f_AykrnvLy-JYXi6f2Sj-95">
          <mxGeometry relative="1" as="geometry" />
        </mxCell>
        <mxCell id="f_AykrnvLy-JYXi6f2Sj-97" value="ไฟล&lt;br&gt;รูปภาพ ?" style="rhombus;whiteSpace=wrap;html=1;" vertex="1" parent="f_AykrnvLy-JYXi6f2Sj-90">
          <mxGeometry x="246.22000000000003" width="65" height="65" as="geometry" />
        </mxCell>
        <mxCell id="f_AykrnvLy-JYXi6f2Sj-98" style="edgeStyle=orthogonalEdgeStyle;rounded=0;orthogonalLoop=1;jettySize=auto;html=1;entryX=0.5;entryY=0;entryDx=0;entryDy=0;" edge="1" parent="f_AykrnvLy-JYXi6f2Sj-90" source="f_AykrnvLy-JYXi6f2Sj-100" target="f_AykrnvLy-JYXi6f2Sj-92">
          <mxGeometry relative="1" as="geometry" />
        </mxCell>
        <mxCell id="f_AykrnvLy-JYXi6f2Sj-99" value="ไม่" style="edgeLabel;html=1;align=center;verticalAlign=middle;resizable=0;points=[];" vertex="1" connectable="0" parent="f_AykrnvLy-JYXi6f2Sj-98">
          <mxGeometry x="-0.6238" y="2" relative="1" as="geometry">
            <mxPoint as="offset" />
          </mxGeometry>
        </mxCell>
        <mxCell id="f_AykrnvLy-JYXi6f2Sj-100" value="ขนาดไฟล&lt;br&gt;&amp;nbsp;&amp;gt; 50mb ?" style="rhombus;whiteSpace=wrap;html=1;" vertex="1" parent="f_AykrnvLy-JYXi6f2Sj-90">
          <mxGeometry x="238.72000000000003" y="87.5" width="80" height="70" as="geometry" />
        </mxCell>
        <mxCell id="f_AykrnvLy-JYXi6f2Sj-101" value="" style="edgeStyle=orthogonalEdgeStyle;rounded=0;orthogonalLoop=1;jettySize=auto;html=1;" edge="1" parent="f_AykrnvLy-JYXi6f2Sj-90" source="f_AykrnvLy-JYXi6f2Sj-97" target="f_AykrnvLy-JYXi6f2Sj-100">
          <mxGeometry relative="1" as="geometry">
            <Array as="points">
              <mxPoint x="277.72" y="85.5" />
              <mxPoint x="278.72" y="85.5" />
            </Array>
          </mxGeometry>
        </mxCell>
        <mxCell id="f_AykrnvLy-JYXi6f2Sj-102" value="ใช่" style="edgeLabel;html=1;align=center;verticalAlign=middle;resizable=0;points=[];" vertex="1" connectable="0" parent="f_AykrnvLy-JYXi6f2Sj-101">
          <mxGeometry x="0.4745" y="1" relative="1" as="geometry">
            <mxPoint as="offset" />
          </mxGeometry>
        </mxCell>
        <mxCell id="f_AykrnvLy-JYXi6f2Sj-103" value="rerturn Error Code 043&lt;span style=&quot;font-size: medium; text-align: start;&quot;&gt;&lt;/span&gt;" style="rounded=1;whiteSpace=wrap;html=1;" vertex="1" parent="f_AykrnvLy-JYXi6f2Sj-90">
          <mxGeometry x="52.07000000000002" y="82.5" width="77.5" height="40" as="geometry" />
        </mxCell>
        <mxCell id="f_AykrnvLy-JYXi6f2Sj-104" value="สร้างข้อมูล ActivityLog&lt;span style=&quot;font-size: medium; text-align: start;&quot;&gt;&lt;/span&gt;" style="rounded=1;whiteSpace=wrap;html=1;" vertex="1" parent="f_AykrnvLy-JYXi6f2Sj-90">
          <mxGeometry x="143.72000000000003" y="12.5" width="77.5" height="40" as="geometry" />
        </mxCell>
        <mxCell id="f_AykrnvLy-JYXi6f2Sj-105" style="edgeStyle=orthogonalEdgeStyle;rounded=0;orthogonalLoop=1;jettySize=auto;html=1;" edge="1" parent="f_AykrnvLy-JYXi6f2Sj-90" source="f_AykrnvLy-JYXi6f2Sj-97" target="f_AykrnvLy-JYXi6f2Sj-104">
          <mxGeometry relative="1" as="geometry" />
        </mxCell>
        <mxCell id="f_AykrnvLy-JYXi6f2Sj-106" value="ไม่" style="edgeLabel;html=1;align=center;verticalAlign=middle;resizable=0;points=[];" vertex="1" connectable="0" parent="f_AykrnvLy-JYXi6f2Sj-105">
          <mxGeometry x="0.5378" relative="1" as="geometry">
            <mxPoint as="offset" />
          </mxGeometry>
        </mxCell>
        <mxCell id="f_AykrnvLy-JYXi6f2Sj-107" value="" style="edgeStyle=orthogonalEdgeStyle;rounded=0;orthogonalLoop=1;jettySize=auto;html=1;entryX=0.5;entryY=0;entryDx=0;entryDy=0;" edge="1" parent="f_AykrnvLy-JYXi6f2Sj-90" source="f_AykrnvLy-JYXi6f2Sj-108" target="f_AykrnvLy-JYXi6f2Sj-103">
          <mxGeometry relative="1" as="geometry" />
        </mxCell>
        <mxCell id="f_AykrnvLy-JYXi6f2Sj-108" value="บันทึกข้อมูล&lt;span style=&quot;font-size: medium; text-align: start;&quot;&gt;&lt;/span&gt;" style="rounded=1;whiteSpace=wrap;html=1;" vertex="1" parent="f_AykrnvLy-JYXi6f2Sj-90">
          <mxGeometry x="37.72000000000003" y="12.5" width="77.5" height="40" as="geometry" />
        </mxCell>
        <mxCell id="f_AykrnvLy-JYXi6f2Sj-109" value="" style="edgeStyle=orthogonalEdgeStyle;rounded=0;orthogonalLoop=1;jettySize=auto;html=1;" edge="1" parent="f_AykrnvLy-JYXi6f2Sj-90" source="f_AykrnvLy-JYXi6f2Sj-104" target="f_AykrnvLy-JYXi6f2Sj-108">
          <mxGeometry relative="1" as="geometry" />
        </mxCell>
        <mxCell id="f_AykrnvLy-JYXi6f2Sj-110" value="rerturn Error Code 044&lt;span style=&quot;font-size: medium; text-align: start;&quot;&gt;&lt;/span&gt;" style="rounded=1;whiteSpace=wrap;html=1;" vertex="1" parent="f_AykrnvLy-JYXi6f2Sj-90">
          <mxGeometry x="52.07000000000002" y="227.5" width="77.5" height="40" as="geometry" />
        </mxCell>
        <mxCell id="f_AykrnvLy-JYXi6f2Sj-111" value="สร้างข้อมูล ActivityLog&lt;span style=&quot;font-size: medium; text-align: start;&quot;&gt;&lt;/span&gt;" style="rounded=1;whiteSpace=wrap;html=1;" vertex="1" parent="f_AykrnvLy-JYXi6f2Sj-90">
          <mxGeometry x="153.72000000000003" y="157.5" width="77.5" height="40" as="geometry" />
        </mxCell>
        <mxCell id="f_AykrnvLy-JYXi6f2Sj-112" style="edgeStyle=orthogonalEdgeStyle;rounded=0;orthogonalLoop=1;jettySize=auto;html=1;entryX=0.5;entryY=0;entryDx=0;entryDy=0;" edge="1" parent="f_AykrnvLy-JYXi6f2Sj-90" source="f_AykrnvLy-JYXi6f2Sj-100" target="f_AykrnvLy-JYXi6f2Sj-111">
          <mxGeometry relative="1" as="geometry" />
        </mxCell>
        <mxCell id="f_AykrnvLy-JYXi6f2Sj-113" value="ใช่" style="edgeLabel;html=1;align=center;verticalAlign=middle;resizable=0;points=[];" vertex="1" connectable="0" parent="f_AykrnvLy-JYXi6f2Sj-112">
          <mxGeometry x="-0.6182" y="-1" relative="1" as="geometry">
            <mxPoint as="offset" />
          </mxGeometry>
        </mxCell>
        <mxCell id="f_AykrnvLy-JYXi6f2Sj-114" style="edgeStyle=orthogonalEdgeStyle;rounded=0;orthogonalLoop=1;jettySize=auto;html=1;" edge="1" parent="f_AykrnvLy-JYXi6f2Sj-90" source="f_AykrnvLy-JYXi6f2Sj-115" target="f_AykrnvLy-JYXi6f2Sj-110">
          <mxGeometry relative="1" as="geometry" />
        </mxCell>
        <mxCell id="f_AykrnvLy-JYXi6f2Sj-115" value="บันทึกข้อมูล&lt;span style=&quot;font-size: medium; text-align: start;&quot;&gt;&lt;/span&gt;" style="rounded=1;whiteSpace=wrap;html=1;" vertex="1" parent="f_AykrnvLy-JYXi6f2Sj-90">
          <mxGeometry x="52.07000000000002" y="157.5" width="77.5" height="40" as="geometry" />
        </mxCell>
        <mxCell id="f_AykrnvLy-JYXi6f2Sj-116" style="edgeStyle=orthogonalEdgeStyle;rounded=0;orthogonalLoop=1;jettySize=auto;html=1;entryX=1;entryY=0.5;entryDx=0;entryDy=0;" edge="1" parent="f_AykrnvLy-JYXi6f2Sj-90" source="f_AykrnvLy-JYXi6f2Sj-111" target="f_AykrnvLy-JYXi6f2Sj-115">
          <mxGeometry relative="1" as="geometry" />
        </mxCell>
        <mxCell id="f_AykrnvLy-JYXi6f2Sj-117" value="2" style="ellipse;whiteSpace=wrap;html=1;aspect=fixed;" vertex="1" parent="f_AykrnvLy-JYXi6f2Sj-90">
          <mxGeometry x="143.72000000000003" y="412.5" width="50" height="50" as="geometry" />
        </mxCell>
        <mxCell id="f_AykrnvLy-JYXi6f2Sj-118" style="edgeStyle=orthogonalEdgeStyle;rounded=0;orthogonalLoop=1;jettySize=auto;html=1;entryX=0;entryY=0.5;entryDx=0;entryDy=0;" edge="1" parent="f_AykrnvLy-JYXi6f2Sj-90" source="f_AykrnvLy-JYXi6f2Sj-103" target="f_AykrnvLy-JYXi6f2Sj-117">
          <mxGeometry relative="1" as="geometry">
            <Array as="points">
              <mxPoint y="102.5" />
              <mxPoint y="357.5" />
              <mxPoint x="60" y="357.5" />
              <mxPoint x="60" y="437.5" />
            </Array>
          </mxGeometry>
        </mxCell>
        <mxCell id="f_AykrnvLy-JYXi6f2Sj-119" style="edgeStyle=orthogonalEdgeStyle;rounded=0;orthogonalLoop=1;jettySize=auto;html=1;entryX=1;entryY=0.5;entryDx=0;entryDy=0;" edge="1" parent="f_AykrnvLy-JYXi6f2Sj-90" source="f_AykrnvLy-JYXi6f2Sj-95" target="f_AykrnvLy-JYXi6f2Sj-117">
          <mxGeometry relative="1" as="geometry" />
        </mxCell>
        <mxCell id="f_AykrnvLy-JYXi6f2Sj-120" style="edgeStyle=orthogonalEdgeStyle;rounded=0;orthogonalLoop=1;jettySize=auto;html=1;entryX=-0.002;entryY=0.205;entryDx=0;entryDy=0;entryPerimeter=0;" edge="1" parent="f_AykrnvLy-JYXi6f2Sj-90" source="f_AykrnvLy-JYXi6f2Sj-110" target="f_AykrnvLy-JYXi6f2Sj-117">
          <mxGeometry relative="1" as="geometry" />
        </mxCell>
        <mxCell id="f_AykrnvLy-JYXi6f2Sj-86" style="edgeStyle=orthogonalEdgeStyle;rounded=0;orthogonalLoop=1;jettySize=auto;html=1;entryX=1;entryY=0.5;entryDx=0;entryDy=0;" edge="1" parent="uDKnnfSJuUjkHK5vjNdq-1" source="f_AykrnvLy-JYXi6f2Sj-87" target="f_AykrnvLy-JYXi6f2Sj-92">
          <mxGeometry relative="1" as="geometry">
            <Array as="points">
              <mxPoint x="392.62" y="169" />
              <mxPoint x="392.62" y="299" />
            </Array>
          </mxGeometry>
        </mxCell>
        <mxCell id="FFxhzRxJocXwWcnJcmNc-9" value="ไม่" style="edgeLabel;html=1;align=center;verticalAlign=middle;resizable=0;points=[];" vertex="1" connectable="0" parent="f_AykrnvLy-JYXi6f2Sj-86">
          <mxGeometry x="-0.0035" y="2" relative="1" as="geometry">
            <mxPoint as="offset" />
          </mxGeometry>
        </mxCell>
        <mxCell id="f_AykrnvLy-JYXi6f2Sj-121" value="สิ้นสุด" style="ellipse;whiteSpace=wrap;html=1;" vertex="1" parent="uDKnnfSJuUjkHK5vjNdq-1">
          <mxGeometry x="302.62" y="570" width="100" height="50" as="geometry" />
        </mxCell>
        <mxCell id="f_AykrnvLy-JYXi6f2Sj-122" style="edgeStyle=orthogonalEdgeStyle;rounded=0;orthogonalLoop=1;jettySize=auto;html=1;entryX=0.5;entryY=0;entryDx=0;entryDy=0;" edge="1" parent="uDKnnfSJuUjkHK5vjNdq-1" source="f_AykrnvLy-JYXi6f2Sj-117" target="f_AykrnvLy-JYXi6f2Sj-121">
          <mxGeometry relative="1" as="geometry">
            <Array as="points">
              <mxPoint x="168.62" y="550" />
              <mxPoint x="352.62" y="550" />
            </Array>
          </mxGeometry>
        </mxCell>
        <mxCell id="f_AykrnvLy-JYXi6f2Sj-123" style="edgeStyle=orthogonalEdgeStyle;rounded=0;orthogonalLoop=1;jettySize=auto;html=1;" edge="1" parent="uDKnnfSJuUjkHK5vjNdq-1" source="f_AykrnvLy-JYXi6f2Sj-124" target="f_AykrnvLy-JYXi6f2Sj-121">
          <mxGeometry relative="1" as="geometry">
            <Array as="points">
              <mxPoint x="128.62" y="595" />
              <mxPoint x="128.62" y="595" />
            </Array>
          </mxGeometry>
        </mxCell>
        <mxCell id="f_AykrnvLy-JYXi6f2Sj-124" value="1" style="ellipse;whiteSpace=wrap;html=1;aspect=fixed;" vertex="1" parent="uDKnnfSJuUjkHK5vjNdq-1">
          <mxGeometry x="13.620000000000005" y="560" width="50" height="50" as="geometry" />
        </mxCell>
        <mxCell id="PP1_beBMulsJ-E4AbIWN-1" style="edgeStyle=orthogonalEdgeStyle;rounded=0;orthogonalLoop=1;jettySize=auto;html=1;" edge="1" parent="1" source="PP1_beBMulsJ-E4AbIWN-2" target="PP1_beBMulsJ-E4AbIWN-5">
          <mxGeometry relative="1" as="geometry" />
        </mxCell>
        <mxCell id="PP1_beBMulsJ-E4AbIWN-2" value="AuditCode ซ้ำไหม" style="rounded=1;whiteSpace=wrap;html=1;" vertex="1" parent="1">
          <mxGeometry x="387.5" y="850" width="77.5" height="40" as="geometry" />
        </mxCell>
        <mxCell id="PP1_beBMulsJ-E4AbIWN-3" value="" style="edgeStyle=orthogonalEdgeStyle;rounded=0;orthogonalLoop=1;jettySize=auto;html=1;" edge="1" parent="1" source="PP1_beBMulsJ-E4AbIWN-5" target="PP1_beBMulsJ-E4AbIWN-6">
          <mxGeometry relative="1" as="geometry" />
        </mxCell>
        <mxCell id="PP1_beBMulsJ-E4AbIWN-4" value="ใช่" style="edgeLabel;html=1;align=center;verticalAlign=middle;resizable=0;points=[];" vertex="1" connectable="0" parent="PP1_beBMulsJ-E4AbIWN-3">
          <mxGeometry x="-0.6668" y="-1" relative="1" as="geometry">
            <mxPoint as="offset" />
          </mxGeometry>
        </mxCell>
        <mxCell id="PP1_beBMulsJ-E4AbIWN-5" value="ซ้ำ ?" style="rhombus;whiteSpace=wrap;html=1;" vertex="1" parent="1">
          <mxGeometry x="396.25" y="920" width="60" height="60" as="geometry" />
        </mxCell>
        <mxCell id="PP1_beBMulsJ-E4AbIWN-8" style="edgeStyle=orthogonalEdgeStyle;rounded=0;orthogonalLoop=1;jettySize=auto;html=1;" edge="1" parent="1" source="FFxhzRxJocXwWcnJcmNc-1" target="PP1_beBMulsJ-E4AbIWN-7">
          <mxGeometry relative="1" as="geometry" />
        </mxCell>
        <mxCell id="PP1_beBMulsJ-E4AbIWN-6" value="สร้างข้อมูล ActivityLog&lt;span style=&quot;font-size: medium; text-align: start;&quot;&gt;&lt;/span&gt;" style="rounded=1;whiteSpace=wrap;html=1;" vertex="1" parent="1">
          <mxGeometry x="273.5" y="930" width="77.5" height="40" as="geometry" />
        </mxCell>
        <mxCell id="PP1_beBMulsJ-E4AbIWN-9" style="edgeStyle=orthogonalEdgeStyle;rounded=0;orthogonalLoop=1;jettySize=auto;html=1;entryX=0;entryY=1;entryDx=0;entryDy=0;" edge="1" parent="1" source="PP1_beBMulsJ-E4AbIWN-7" target="f_AykrnvLy-JYXi6f2Sj-19">
          <mxGeometry relative="1" as="geometry">
            <Array as="points">
              <mxPoint x="169" y="715" />
            </Array>
          </mxGeometry>
        </mxCell>
        <mxCell id="PP1_beBMulsJ-E4AbIWN-7" value="rerturn Error Code&amp;nbsp;055&lt;span style=&quot;font-size: medium; text-align: start;&quot;&gt;&lt;/span&gt;" style="rounded=1;whiteSpace=wrap;html=1;" vertex="1" parent="1">
          <mxGeometry x="130" y="840" width="77.5" height="40" as="geometry" />
        </mxCell>
        <mxCell id="FFxhzRxJocXwWcnJcmNc-2" value="" style="edgeStyle=orthogonalEdgeStyle;rounded=0;orthogonalLoop=1;jettySize=auto;html=1;" edge="1" parent="1" source="PP1_beBMulsJ-E4AbIWN-6" target="FFxhzRxJocXwWcnJcmNc-1">
          <mxGeometry relative="1" as="geometry">
            <mxPoint x="274" y="950" as="sourcePoint" />
            <mxPoint x="169" y="880" as="targetPoint" />
          </mxGeometry>
        </mxCell>
        <mxCell id="FFxhzRxJocXwWcnJcmNc-1" value="บันทึกข้อมูล&lt;span style=&quot;font-size: medium; text-align: start;&quot;&gt;&lt;/span&gt;" style="rounded=1;whiteSpace=wrap;html=1;" vertex="1" parent="1">
          <mxGeometry x="165" y="930" width="77.5" height="40" as="geometry" />
        </mxCell>
        <mxCell id="FFxhzRxJocXwWcnJcmNc-7" style="edgeStyle=orthogonalEdgeStyle;rounded=0;orthogonalLoop=1;jettySize=auto;html=1;" edge="1" parent="1" source="FFxhzRxJocXwWcnJcmNc-3" target="f_AykrnvLy-JYXi6f2Sj-131">
          <mxGeometry relative="1" as="geometry" />
        </mxCell>
        <mxCell id="FFxhzRxJocXwWcnJcmNc-3" value="บันทึกข้อมูล&lt;span style=&quot;font-size: medium; text-align: start;&quot;&gt;&lt;/span&gt;" style="rounded=1;whiteSpace=wrap;html=1;" vertex="1" parent="1">
          <mxGeometry x="215.00000000000003" y="810" width="77.5" height="40" as="geometry" />
        </mxCell>
        <mxCell id="FFxhzRxJocXwWcnJcmNc-6" value="" style="edgeStyle=orthogonalEdgeStyle;rounded=0;orthogonalLoop=1;jettySize=auto;html=1;entryX=1;entryY=0.5;entryDx=0;entryDy=0;" edge="1" parent="1" source="f_AykrnvLy-JYXi6f2Sj-128" target="FFxhzRxJocXwWcnJcmNc-5">
          <mxGeometry relative="1" as="geometry">
            <mxPoint x="408" y="810" as="sourcePoint" />
            <mxPoint x="323" y="860" as="targetPoint" />
            <Array as="points">
              <mxPoint x="370" y="810" />
              <mxPoint x="370" y="890" />
            </Array>
          </mxGeometry>
        </mxCell>
        <mxCell id="FFxhzRxJocXwWcnJcmNc-8" value="ไม่" style="edgeLabel;html=1;align=center;verticalAlign=middle;resizable=0;points=[];" vertex="1" connectable="0" parent="FFxhzRxJocXwWcnJcmNc-6">
          <mxGeometry x="-0.6728" y="-1" relative="1" as="geometry">
            <mxPoint as="offset" />
          </mxGeometry>
        </mxCell>
        <mxCell id="FFxhzRxJocXwWcnJcmNc-5" value="สร้างข้อมูล ActivityLog&lt;span style=&quot;font-size: medium; text-align: start;&quot;&gt;&lt;/span&gt;" style="rounded=1;whiteSpace=wrap;html=1;" vertex="1" parent="1">
          <mxGeometry x="280" y="870" width="77.5" height="40" as="geometry" />
        </mxCell>
      </root>
    </mxGraphModel>
  </diagram>
</mxfile>
